<?xml version="1.0" encoding="utf-8"?>
<!-- Generator: Adobe Illustrator 19.1.0, SVG Export Plug-In . SVG Version: 6.00 Build 0)  -->
<!DOCTYPE svg PUBLIC "-//W3C//DTD SVG 1.1//EN" "http://www.w3.org/Graphics/SVG/1.1/DTD/svg11.dtd">
<svg version="1.1" id="Layer_1" xmlns="http://www.w3.org/2000/svg" xmlns:xlink="http://www.w3.org/1999/xlink" x="0px" y="0px"
	 viewBox="0 0 120 112" enable-background="new 0 0 120 112" xml:space="preserve">
<g>
	<path fill="#795548" d="M99,28.3c-6,0-10.8-3.5-10.8-8h3c0,2.7,3.6,5,7.8,5s7.8-2.3,7.8-5h3C109.8,24.7,105,28.3,99,28.3z"/>
	<path fill="#FFB300" d="M21.5,28.3c-6,0-10.8-3.5-10.8-8h3c0,2.7,3.6,5,7.8,5c4.2,0,7.8-2.3,7.8-5h3C32.2,24.7,27.5,28.3,21.5,28.3
		z"/>
	<polygon fill="#8D6E63" points="52.7,30.5 39.1,44.2 82.4,87.5 88.9,87.4 95.9,87.4 96,73.8 90.2,75.4 91.7,69.5 85.9,71.1 
		87.4,65.2 81.6,66.8 83.1,60.9 77.3,62.5 78.8,56.7 73,58.2 74.5,52.4 68.7,53.9 70.2,48.1 64.4,49.6 65.9,43.8 60.1,45.3 
		61.7,39.5 	"/>
	<path fill="#87675C" d="M55.4,33.3v13.6l-5.1-5.1c-2.5,2.5-5.4,4.2-8.6,5.1l-2.7-2.7l13.7-13.7L55.4,33.3z"/>
	<path fill="#87675C" d="M95.9,87.4l-13.5,0.1L55.4,60.5L41.8,46.9c3.1-0.9,6.1-2.6,8.6-5.1l5.1,5.1L95.9,87.4z"/>
	<polygon fill="#76554A" points="48.9,40.4 45.4,43.9 88.8,87.3 95.9,87.4 	"/>
	<g>
		<g>
			<path fill="#8D6E63" d="M50.4,13.1c-8-7.9-20.8-7.9-28.7,0c-5.7,5.7-7.3,14-4.8,21.1c0.4,1.3,1,2.5,1.7,3.7
				c0.3,0.5,0.6,0.9,0.9,1.4c0.3,0.4,0.7,0.9,1,1.3c0.3,0.4,0.7,0.8,1.1,1.2c0.5,0.5,1,1,1.6,1.4c0.5,0.4,1.1,0.8,1.6,1.2
				c0.6,0.4,1.2,0.7,1.7,1c4.7,2.5,10.2,3,15.3,1.5c3.1-0.9,6.1-2.6,8.6-5.1c2.5-2.5,4.1-5.4,5.1-8.5C57.5,26.4,55.8,18.5,50.4,13.1
				z M32.9,19.1c1.5,1.5,1.5,3.8,0,5.3c-1.5,1.5-3.8,1.5-5.3,0v0c-1.5-1.5-1.5-3.8,0-5.3C29.1,17.7,31.5,17.7,32.9,19.1z"/>
		</g>
	</g>
	<path fill="#87675C" d="M50.4,41.8c-2.5,2.5-5.4,4.2-8.6,5.1l0,0c-5,1.5-10.5,1-15.3-1.5c-0.6-0.3-1.2-0.7-1.7-1
		c-0.6-0.4-1.1-0.8-1.6-1.2c-0.5-0.4-1-0.9-1.6-1.4c-0.4-0.4-0.8-0.8-1.1-1.2c-0.4-0.4-0.7-0.9-1-1.3c-0.3-0.5-0.6-0.9-0.9-1.4
		c-0.7-1.2-1.3-2.4-1.7-3.7C14.3,27,15.9,18.7,21.6,13l6.1,6.1v0c-1.5,1.5-1.5,3.8,0,5.3c1.5,1.5,3.8,1.5,5.3,0l0,0l12.9,12.9
		L50.4,41.8z"/>
	<polygon fill="#FFC107" points="67.3,30.5 80.9,44.2 37.6,87.5 31.1,87.4 24.1,87.4 24,73.8 29.8,75.4 28.3,69.5 34.1,71.1 
		32.6,65.2 38.4,66.8 36.9,60.9 42.7,62.5 41.2,56.7 47,58.2 45.5,52.4 51.3,53.9 49.8,48.1 55.6,49.6 54.1,43.8 59.9,45.3 
		58.3,39.5 	"/>
	<path fill="#FFB706" d="M64.6,33.3v13.6l5.1-5.1c2.5,2.5,5.4,4.2,8.6,5.1l2.7-2.7L67.3,30.5L64.6,33.3z"/>
	<path fill="#FFB706" d="M24.1,87.4l13.5,0.1l26.9-26.9l13.6-13.6c-3.1-0.9-6.1-2.6-8.6-5.1l-5.1,5.1L24.1,87.4z"/>
	<polygon fill="#FFA802" points="71.1,40.4 74.6,43.9 31.2,87.3 24.1,87.4 	"/>
	<g>
		<g>
			<path fill="#FFC107" d="M69.6,13.1c8-7.9,20.8-7.9,28.7,0c5.7,5.7,7.3,14,4.8,21.1c-0.4,1.3-1,2.5-1.7,3.7
				c-0.3,0.5-0.6,0.9-0.9,1.4c-0.3,0.4-0.7,0.9-1,1.3c-0.3,0.4-0.7,0.8-1.1,1.2c-0.5,0.5-1,1-1.6,1.4c-0.5,0.4-1.1,0.8-1.6,1.2
				c-0.6,0.4-1.2,0.7-1.7,1c-4.7,2.5-10.2,3-15.3,1.5c-3.1-0.9-6.1-2.6-8.6-5.1c-2.5-2.5-4.1-5.4-5.1-8.5
				C62.5,26.4,64.2,18.5,69.6,13.1z M87.1,19.1c-1.5,1.5-1.5,3.8,0,5.3c1.5,1.5,3.8,1.5,5.3,0v0c1.5-1.5,1.5-3.8,0-5.3
				C90.9,17.7,88.5,17.7,87.1,19.1z"/>
		</g>
	</g>
	<path fill="#FFB706" d="M69.6,41.8c2.5,2.5,5.4,4.2,8.6,5.1l0,0c5,1.5,10.5,1,15.3-1.5c0.6-0.3,1.2-0.7,1.7-1
		c0.6-0.4,1.1-0.8,1.6-1.2c0.5-0.4,1-0.9,1.6-1.4c0.4-0.4,0.8-0.8,1.1-1.2c0.4-0.4,0.7-0.9,1-1.3c0.3-0.5,0.6-0.9,0.9-1.4
		c0.7-1.2,1.3-2.4,1.7-3.7c2.5-7.1,0.9-15.4-4.8-21.1l-6.1,6.1v0c1.5,1.5,1.5,3.8,0,5.3c-1.5,1.5-3.8,1.5-5.3,0l0,0L74.1,37.3
		L69.6,41.8z"/>
	<path fill="#C4B4AF" d="M30.3,18.1c2,0,3.7,1.7,3.7,3.7s-1.7,3.7-3.7,3.7s-3.7-1.7-3.7-3.7S28.3,18.1,30.3,18.1 M30.3,17.1
		c-2.6,0-4.7,2.1-4.7,4.7s2.1,4.7,4.7,4.7s4.7-2.1,4.7-4.7S32.9,17.1,30.3,17.1L30.3,17.1z"/>
	<path fill="#FCDE81" d="M89.7,18.1c2,0,3.7,1.7,3.7,3.7s-1.7,3.7-3.7,3.7S86,23.8,86,21.8S87.7,18.1,89.7,18.1 M89.7,17.1
		c-2.6,0-4.7,2.1-4.7,4.7s2.1,4.7,4.7,4.7s4.7-2.1,4.7-4.7S92.3,17.1,89.7,17.1L89.7,17.1z"/>
	<path fill="#FFC107" d="M32.2,20.3h-3c0-2.7-3.6-5-7.8-5c-4.2,0-7.8,2.3-7.8,5h-3c0-4.5,4.7-8,10.8-8
		C27.5,12.3,32.2,15.8,32.2,20.3z"/>
	<path fill="#8D6E63" d="M109.8,20.3h-3c0-2.7-3.6-5-7.8-5s-7.8,2.3-7.8,5h-3c0-4.5,4.7-8,10.8-8S109.8,15.8,109.8,20.3z"/>
</g>
<path fill="#8D6E63" d="M114.4,110.3H5.6c-2.9,0-5.2-2.3-5.2-5.2V86c0-2.9,2.3-5.2,5.2-5.2h108.7c2.9,0,5.2,2.3,5.2,5.2v19.1
	C119.6,108,117.2,110.3,114.4,110.3z"/>
<path fill="#795548" d="M114.4,112H5.6c-2.9,0-5.2-2.3-5.2-5.2V86.7c0-2.9,2.3-5.2,5.2-5.2h108.7c2.9,0,5.2,2.3,5.2,5.2v20.1
	C119.6,109.7,117.2,112,114.4,112z"/>
<g>
	<path fill="#FFFFFF" d="M34.6,101.8h-5.3l-0.9,3h-4.2l5.9-16.2h3.7l6,16.2h-4.2L34.6,101.8z M30.2,98.8h3.5l-1.7-5.6L30.2,98.8z"/>
	<path fill="#FFFFFF" d="M40.9,104.8V88.7h5.2c1.1,0,2.1,0.2,3,0.6c0.9,0.4,1.7,0.9,2.4,1.6c0.7,0.7,1.2,1.5,1.5,2.5
		c0.4,1,0.6,2,0.6,3.1v0.7c0,1.1-0.2,2.2-0.6,3.1s-0.9,1.8-1.5,2.4c-0.7,0.7-1.4,1.2-2.4,1.6c-0.9,0.4-1.9,0.6-3,0.6H40.9z
		 M44.8,91.7v10.2h1.4c1.1,0,2-0.4,2.6-1.2s0.9-2,0.9-3.5v-0.7c0-1.6-0.3-2.7-0.9-3.5s-1.5-1.2-2.6-1.2H44.8z"/>
	<path fill="#FFFFFF" d="M60.7,88.7l3.6,11.2l3.6-11.2H73v16.2h-3.9v-3.8l0.4-7.7l-3.9,11.5H63l-3.9-11.5l0.4,7.7v3.8h-3.9V88.7
		H60.7z"/>
	<path fill="#FFFFFF" d="M79.7,104.8h-3.9V88.7h3.9V104.8z"/>
	<path fill="#FFFFFF" d="M95.9,104.8H92l-5.7-10.1v10.1h-3.9V88.7h3.9L92,98.7V88.7h3.9V104.8z"/>
</g>
</svg>
