<?xml version="1.0" encoding="utf-8"?>
<!-- Generator: Adobe Illustrator 19.1.0, SVG Export Plug-In . SVG Version: 6.00 Build 0)  -->
<!DOCTYPE svg PUBLIC "-//W3C//DTD SVG 1.1//EN" "http://www.w3.org/Graphics/SVG/1.1/DTD/svg11.dtd">
<svg version="1.1" id="Layer_1" xmlns="http://www.w3.org/2000/svg" xmlns:xlink="http://www.w3.org/1999/xlink" x="0px" y="0px"
	 viewBox="0 0 120 112" enable-background="new 0 0 120 112" xml:space="preserve">
<g>
	<path fill="#607D8B" d="M54.8,29.4L28,53.1c-1.7,1.5-4.3,1.3-5.8-0.4l0,0c-1.5-1.7-1.3-4.3,0.4-5.8l26.8-23.7
		c1.7-1.5,4.3-1.3,5.8,0.4l0,0C56.7,25.3,56.5,27.9,54.8,29.4z"/>
	<path fill="#607D8B" d="M88.4,98.4c-0.3,0.1-0.6,0.1-1,0.1L35.3,46.7l1.3-1.2L88.4,98.4z"/>
	<path fill="#607D8B" d="M90.4,97.5c-0.2,0.2-0.4,0.3-0.7,0.4L38.9,43.5l1.3-1.2L90.4,97.5z"/>
	<path fill="#607D8B" d="M92.7,93.8c-0.1,0.3-0.1,0.6-0.2,0.9c-0.1,0.5-0.4,0.9-0.6,1.3c-0.1,0.2-0.3,0.4-0.5,0.6
		c-0.1,0.2-0.3,0.3-0.5,0.5h0L41.4,41.3l9.1-8l41.2,56.3C92.7,90.8,93,92.4,92.7,93.8z"/>
	<path fill="#5B717B" d="M88.4,98.4c-0.3,0.1-0.6,0.1-1,0.1L35.3,46.7l1.3-1.2L88.4,98.4z"/>
	<path fill="#5B717B" d="M90.4,97.5c-0.2,0.2-0.4,0.3-0.7,0.4L38.9,43.5l1.3-1.2L90.4,97.5z"/>
	<path fill="#738D99" d="M43.9,39.1l47.9,57c-0.1,0.2-0.3,0.4-0.5,0.6L42.6,40.2L43.9,39.1z"/>
	<path fill="#738D99" d="M47.5,35.9l45.2,58c0,0.3-0.1,0.6-0.2,0.9L46.2,37L47.5,35.9z"/>
	<path fill="#58727F" d="M55.2,23.6c0.7,0.8,1,1.9,0.9,3c-0.1,1.1-0.7,2.2-1.6,3L28.3,52.9c-1.9,1.6-4.6,1.6-6.1-0.1L55.2,23.6z"/>
	<path fill="#506773" d="M90.9,97.1c-0.2,0.1-0.3,0.3-0.5,0.4L40.3,42.3l1.1-1L90.9,97.1z"/>
	<path fill="#506773" d="M89.7,97.9c-0.4,0.2-0.9,0.4-1.4,0.5L36.6,45.5l2.3-2L89.7,97.9z"/>
	<path fill="#506773" d="M87.4,98.5c-1.5,0.1-3-0.4-4.1-1.5L32.4,49.3l3-2.6L87.4,98.5z"/>
	<path fill="#FF5722" d="M18.4,34.7c2.5,2.8,5.8,4.4,9.3,4.7l15.1-13.4c0.1-3.5-1-7-3.5-9.8c-1.7-2-3.7-3.6-5.8-4.8
		c-2.7-1.6-5.7-2.6-8.7-3.1l0.5,0.4c1.8,2,2.2,4.7,1.1,7c-1.3-0.3-2.6-1.1-3.6-2.2c-2.5-2.8-4.6-7.1-4.6-7.1
		c-0.7,4.1-0.6,8.3,0.4,12.4c-0.9-0.4-1.8-1-2.5-1.9c-2.5-2.8-4.6-7.1-4.6-7.1C10,18.3,12.2,27.6,18.4,34.7z"/>
	<path fill="#E84B1A" d="M18.4,34.7c2.5,2.8,5.8,4.4,9.3,4.7l7.6-6.7c-9.1-0.6-17.8-5-23.8-12.2C12.5,25.5,14.7,30.5,18.4,34.7z"/>
	<path fill="#E0E0E0" d="M65.2,29.4L92,53.1c1.7,1.5,4.3,1.3,5.8-0.4l0,0c1.5-1.7,1.3-4.3-0.4-5.8L70.6,23.3
		c-1.7-1.5-4.3-1.3-5.8,0.4l0,0C63.3,25.3,63.5,27.9,65.2,29.4z"/>
	<path fill="#E0E0E0" d="M78.6,41.3L29.1,97.1h0c-0.2-0.2-0.3-0.3-0.5-0.5c-0.2-0.2-0.3-0.4-0.5-0.6c-0.3-0.4-0.5-0.8-0.6-1.3
		c-0.1-0.3-0.2-0.6-0.2-0.9c-0.2-1.4,0.1-3,1-4.3l41.2-56.3L78.6,41.3z"/>
	<path fill="#E0E0E0" d="M81.1,43.5L30.3,97.9c-0.2-0.1-0.4-0.2-0.7-0.4l50.1-55.2L81.1,43.5z"/>
	<path fill="#E0E0E0" d="M84.7,46.7L32.6,98.5c-0.3,0-0.7,0-1-0.1l51.7-52.9L84.7,46.7z"/>
	<path fill="#ADADAD" d="M84.7,46.7L32.6,98.5c-0.3,0-0.7,0-1-0.1l51.7-52.9L84.7,46.7z"/>
	<path fill="#ADADAD" d="M81.1,43.5L30.3,97.9c-0.2-0.1-0.4-0.2-0.7-0.4l50.1-55.2L81.1,43.5z"/>
	<path fill="#ADADAD" d="M76.1,39.1l-47.9,57c0.1,0.2,0.3,0.4,0.5,0.6l48.8-56.4L76.1,39.1z"/>
	<path fill="#ADADAD" d="M72.5,35.9l-45.2,58c0,0.3,0.1,0.6,0.2,0.9L73.8,37L72.5,35.9z"/>
	<path fill="#D9D9D9" d="M64.8,23.6c-0.7,0.8-1,1.9-0.9,3c0.1,1.1,0.7,2.2,1.6,3l26.2,23.2c1.9,1.6,4.6,1.6,6.1-0.1L64.8,23.6z"/>
	<path fill="#D2D2D2" d="M79.7,42.3L29.6,97.5c-0.2-0.1-0.3-0.2-0.5-0.4l49.5-55.9L79.7,42.3z"/>
	<path fill="#D2D2D2" d="M83.4,45.5L31.6,98.4c-0.5-0.1-0.9-0.3-1.4-0.5l50.8-54.5L83.4,45.5z"/>
	<path fill="#D2D2D2" d="M87.6,49.3L36.7,97c-1.1,1.1-2.6,1.6-4.1,1.5l52.1-51.9L87.6,49.3z"/>
	<path fill="#FF5722" d="M101.6,34.7c-2.5,2.8-5.8,4.4-9.3,4.7L77.2,25.9c-0.1-3.5,1-7,3.5-9.8c1.7-2,3.7-3.6,5.8-4.8
		c2.7-1.6,5.7-2.6,8.7-3.1l-0.5,0.4c-1.8,2-2.2,4.7-1.1,7c1.3-0.3,2.6-1.1,3.6-2.2c2.5-2.8,4.6-7.1,4.6-7.1
		c0.7,4.1,0.6,8.3-0.4,12.4c0.9-0.4,1.8-1,2.5-1.9c2.5-2.8,4.6-7.1,4.6-7.1C110,18.3,107.8,27.6,101.6,34.7z"/>
	<path fill="#E84B1A" d="M101.6,34.7c-2.5,2.8-5.8,4.4-9.3,4.7l-7.6-6.7c9.1-0.6,17.8-5,23.8-12.2C107.5,25.5,105.3,30.5,101.6,34.7
		z"/>
</g>
<path fill="#90A4AE" d="M114.4,110.3H5.6c-2.9,0-5.2-2.3-5.2-5.2V86c0-2.9,2.3-5.2,5.2-5.2h108.7c2.9,0,5.2,2.3,5.2,5.2v19.1
	C119.6,108,117.2,110.3,114.4,110.3z"/>
<path fill="#607D8B" d="M114.4,112H5.6c-2.9,0-5.2-2.3-5.2-5.2V86.7c0-2.9,2.3-5.2,5.2-5.2h108.7c2.9,0,5.2,2.3,5.2,5.2v20.1
	C119.6,109.7,117.2,112,114.4,112z"/>
<g>
	<path fill="#FFFFFF" d="M35.1,100.5c0-0.3,0-0.5-0.1-0.7s-0.2-0.4-0.4-0.6c-0.2-0.2-0.5-0.4-0.9-0.5s-0.9-0.4-1.5-0.6
		c-0.7-0.2-1.4-0.5-2.1-0.8c-0.7-0.3-1.2-0.6-1.8-1.1s-0.9-0.9-1.2-1.4c-0.3-0.5-0.5-1.2-0.5-1.9c0-0.7,0.2-1.3,0.5-1.9
		c0.3-0.6,0.7-1,1.3-1.4c0.6-0.4,1.2-0.7,2-0.9s1.6-0.3,2.5-0.3c0.9,0,1.7,0.1,2.4,0.4s1.4,0.6,1.9,1c0.5,0.4,0.9,1,1.2,1.6
		s0.5,1.3,0.5,2.1h-3.9c0-0.3,0-0.6-0.1-0.8c-0.1-0.3-0.2-0.5-0.4-0.7c-0.2-0.2-0.4-0.3-0.7-0.4s-0.6-0.2-1-0.2c-0.4,0-0.7,0-1,0.1
		s-0.5,0.2-0.7,0.4c-0.2,0.2-0.3,0.3-0.4,0.5c-0.1,0.2-0.1,0.4-0.1,0.6c0,0.2,0.1,0.5,0.2,0.7s0.3,0.4,0.6,0.6
		c0.3,0.2,0.6,0.3,0.9,0.5c0.4,0.2,0.8,0.3,1.2,0.5c0.9,0.3,1.6,0.6,2.3,0.9s1.2,0.7,1.7,1.1c0.5,0.4,0.8,0.9,1.1,1.5
		c0.2,0.5,0.4,1.2,0.4,1.8c0,0.7-0.1,1.4-0.4,1.9s-0.7,1-1.2,1.4c-0.5,0.4-1.2,0.7-1.9,0.9c-0.7,0.2-1.6,0.3-2.5,0.3
		c-0.6,0-1.1,0-1.7-0.1c-0.5-0.1-1.1-0.2-1.6-0.4s-1-0.4-1.4-0.7c-0.4-0.3-0.8-0.6-1.1-1c-0.3-0.4-0.6-0.9-0.7-1.4
		c-0.2-0.5-0.3-1.1-0.3-1.7h3.9c0,0.5,0.1,0.9,0.2,1.2s0.3,0.6,0.6,0.8c0.2,0.2,0.5,0.3,0.9,0.4s0.8,0.1,1.2,0.1
		c0.4,0,0.7,0,0.9-0.1s0.5-0.2,0.6-0.3c0.2-0.1,0.3-0.3,0.4-0.5C35.1,100.9,35.1,100.7,35.1,100.5z"/>
	<path fill="#FFFFFF" d="M50.2,101.8h-5.3l-0.9,3h-4.2l5.9-16.2h3.7l6,16.2h-4.2L50.2,101.8z M45.8,98.8h3.5l-1.7-5.6L45.8,98.8z"/>
	<path fill="#FFFFFF" d="M60.4,101.8h6.8v3H56.5V88.6h3.9V101.8z"/>
	<path fill="#FFFFFF" d="M78.8,97.9h-6.1v3.9h7.2v3H68.8V88.6H80v3h-7.3V95h6.1V97.9z"/>
	<path fill="#FFFFFF" d="M89.9,100.5c0-0.3,0-0.5-0.1-0.7s-0.2-0.4-0.4-0.6c-0.2-0.2-0.5-0.4-0.9-0.5s-0.9-0.4-1.5-0.6
		c-0.7-0.2-1.4-0.5-2.1-0.8c-0.7-0.3-1.2-0.6-1.8-1.1s-0.9-0.9-1.2-1.4c-0.3-0.5-0.5-1.2-0.5-1.9c0-0.7,0.2-1.3,0.5-1.9
		c0.3-0.6,0.7-1,1.3-1.4c0.6-0.4,1.2-0.7,2-0.9s1.6-0.3,2.5-0.3c0.9,0,1.7,0.1,2.4,0.4s1.4,0.6,1.9,1c0.5,0.4,0.9,1,1.2,1.6
		s0.5,1.3,0.5,2.1h-3.9c0-0.3,0-0.6-0.1-0.8c-0.1-0.3-0.2-0.5-0.4-0.7c-0.2-0.2-0.4-0.3-0.7-0.4s-0.6-0.2-1-0.2c-0.4,0-0.7,0-1,0.1
		s-0.5,0.2-0.7,0.4c-0.2,0.2-0.3,0.3-0.4,0.5c-0.1,0.2-0.1,0.4-0.1,0.6c0,0.2,0.1,0.5,0.2,0.7s0.3,0.4,0.6,0.6
		c0.3,0.2,0.6,0.3,0.9,0.5c0.4,0.2,0.8,0.3,1.2,0.5c0.9,0.3,1.6,0.6,2.3,0.9s1.2,0.7,1.7,1.1c0.5,0.4,0.8,0.9,1.1,1.5
		c0.2,0.5,0.4,1.2,0.4,1.8c0,0.7-0.1,1.4-0.4,1.9s-0.7,1-1.2,1.4c-0.5,0.4-1.2,0.7-1.9,0.9c-0.7,0.2-1.6,0.3-2.5,0.3
		c-0.6,0-1.1,0-1.7-0.1c-0.5-0.1-1.1-0.2-1.6-0.4s-1-0.4-1.4-0.7c-0.4-0.3-0.8-0.6-1.1-1c-0.3-0.4-0.6-0.9-0.7-1.4
		c-0.2-0.5-0.3-1.1-0.3-1.7h3.9c0,0.5,0.1,0.9,0.2,1.2s0.3,0.6,0.6,0.8c0.2,0.2,0.5,0.3,0.9,0.4s0.8,0.1,1.2,0.1
		c0.4,0,0.7,0,0.9-0.1s0.5-0.2,0.6-0.3c0.2-0.1,0.3-0.3,0.4-0.5C89.8,100.9,89.9,100.7,89.9,100.5z"/>
</g>
</svg>
