<?xml version="1.0" encoding="utf-8"?>
<!-- Generator: Adobe Illustrator 19.1.0, SVG Export Plug-In . SVG Version: 6.00 Build 0)  -->
<!DOCTYPE svg PUBLIC "-//W3C//DTD SVG 1.1//EN" "http://www.w3.org/Graphics/SVG/1.1/DTD/svg11.dtd">
<svg version="1.1" id="Layer_1" xmlns="http://www.w3.org/2000/svg" xmlns:xlink="http://www.w3.org/1999/xlink" x="0px" y="0px"
	 viewBox="0 0 120 112" enable-background="new 0 0 120 112" xml:space="preserve">
<g>
	<polygon fill="#7B1FA2" points="108.7,45.6 60,78.8 11.3,45.6 60,16.6 	"/>
	<polygon fill="#EEEEEE" points="99.5,22 99.5,108.9 20.5,108.9 20.5,8 84.5,8 	"/>
	<polygon fill="#AB47BC" points="30.3,8 26.8,16.6 20.5,16.6 20.5,11.6 21.9,8 	"/>
	<polygon fill="#42A5F5" points="42,8 38.6,16.6 30.2,16.6 33.7,8 	"/>
	<polygon fill="#AB47BC" points="53.7,8 50.3,16.6 42,16.6 45.4,8 	"/>
	<polygon fill="#42A5F5" points="65.4,8 62,16.6 53.7,16.6 57.1,8 	"/>
	<polygon fill="#AB47BC" points="77.2,8 73.8,16.6 65.4,16.6 68.9,8 	"/>
	<polygon fill="#42A5F5" points="85.5,16.6 77.2,16.6 80.6,8 84.5,8 	"/>
	<rect x="27.3" y="31.4" fill="#607D8B" width="56.2" height="4.3"/>
	<rect x="27.3" y="41.6" fill="#607D8B" width="38.8" height="4.3"/>
	<path fill="#607D8B" d="M78.3,53c-6.1-2-12.8,1.3-14.8,7.4c-2,6.1,1.3,12.8,7.4,14.8s12.8-1.3,14.8-7.4C87.8,61.7,84.5,55,78.3,53z
		 M71.7,73c-4.9-1.6-7.6-7-5.9-11.9s7-7.6,11.9-5.9c4.9,1.6,7.6,7,5.9,11.9C81.9,72,76.6,74.6,71.7,73z M78.9,64.3
		c0.9,0.3,1.9-0.2,2.2-1.1c0.3-0.9-0.2-1.9-1.1-2.2s-1.9,0.2-2.2,1.1C77.5,63,78,64,78.9,64.3z M71.1,61.7c0.9,0.3,1.9-0.2,2.2-1.1
		c0.3-0.9-0.2-1.9-1.1-2.2s-1.9,0.2-2.2,1.1C69.7,60.4,70.2,61.4,71.1,61.7z M72.6,70.2c2.6,0.9,5.3,0,7-2l-11.4-3.8
		C68.3,67,70,69.4,72.6,70.2z"/>
	<polygon fill="#BA68C8" points="108.7,45.6 108.7,112 11.3,112 11.3,45.6 60,78.8 	"/>
	<polygon fill="#AB47BC" points="108.7,45.6 108.7,112 11.3,112 60,78.8 	"/>
	<path fill="#BDBDBD" d="M99.5,22h-12c-1.2,0-2.1-0.8-2.4-1.9L84.5,8L99.5,22z"/>
</g>
<path fill="#9575CD" d="M114.4,110.3H5.6c-2.9,0-5.2-2.3-5.2-5.2V86c0-2.9,2.3-5.2,5.2-5.2h108.7c2.9,0,5.2,2.3,5.2,5.2v19.1
	C119.6,108,117.2,110.3,114.4,110.3z"/>
<path fill="#7E57C2" d="M114.4,112H5.6c-2.9,0-5.2-2.3-5.2-5.2V86.7c0-2.9,2.3-5.2,5.2-5.2h108.7c2.9,0,5.2,2.3,5.2,5.2v20.1
	C119.6,109.7,117.2,112,114.4,112z"/>
<g>
	<path fill="#FFFFFF" d="M21.1,99c0,0.7-0.2,1.4-0.5,1.9c-0.3,0.6-0.6,1.1-1.1,1.5c-0.5,0.4-1.1,0.7-1.7,1c-0.7,0.2-1.4,0.3-2.3,0.3
		c-0.9,0-1.7-0.2-2.4-0.5c-0.7-0.3-1.3-0.7-1.8-1.3c-0.5-0.6-0.9-1.3-1.1-2.1c-0.3-0.8-0.4-1.7-0.4-2.7v-0.7c0-1,0.1-1.9,0.4-2.7
		c0.3-0.8,0.7-1.5,1.2-2.1c0.5-0.6,1.1-1,1.8-1.3c0.7-0.3,1.5-0.5,2.3-0.5c0.9,0,1.7,0.1,2.3,0.4c0.7,0.2,1.3,0.6,1.7,1
		c0.5,0.4,0.8,0.9,1.1,1.5c0.3,0.6,0.4,1.2,0.5,1.9h-3.2c0-0.4-0.1-0.7-0.2-1c-0.1-0.3-0.2-0.5-0.4-0.7c-0.2-0.2-0.4-0.3-0.7-0.4
		s-0.7-0.1-1.1-0.1c-0.4,0-0.8,0.1-1,0.2s-0.5,0.4-0.7,0.7c-0.2,0.3-0.3,0.7-0.4,1.2c-0.1,0.5-0.1,1.1-0.1,1.8v0.8
		c0,0.7,0,1.3,0.1,1.8c0.1,0.5,0.2,0.9,0.4,1.2c0.2,0.3,0.4,0.6,0.7,0.7c0.3,0.1,0.7,0.2,1.1,0.2c0.7,0,1.3-0.2,1.7-0.5
		c0.4-0.4,0.6-0.9,0.6-1.7H21.1z"/>
	<path fill="#FFFFFF" d="M33.3,90v8.8c0,0.8-0.1,1.5-0.4,2.1c-0.3,0.6-0.6,1.1-1.1,1.5c-0.5,0.4-1,0.7-1.7,0.9
		c-0.7,0.2-1.4,0.3-2.2,0.3c-0.8,0-1.5-0.1-2.2-0.3c-0.7-0.2-1.2-0.5-1.7-0.9c-0.5-0.4-0.8-0.9-1.1-1.5c-0.3-0.6-0.4-1.3-0.4-2.1V90
		h3.3v8.8c0,0.8,0.2,1.4,0.5,1.8c0.4,0.4,0.9,0.6,1.5,0.6c0.7,0,1.2-0.2,1.5-0.6c0.3-0.4,0.5-1,0.5-1.8V90H33.3z"/>
	<path fill="#FFFFFF" d="M42.3,99.9c0-0.2,0-0.4-0.1-0.6c-0.1-0.2-0.2-0.3-0.3-0.5c-0.2-0.2-0.4-0.3-0.7-0.5
		c-0.3-0.1-0.7-0.3-1.2-0.5c-0.6-0.2-1.2-0.4-1.7-0.7c-0.6-0.2-1-0.5-1.5-0.9c-0.4-0.3-0.8-0.7-1-1.2c-0.3-0.5-0.4-1-0.4-1.6
		c0-0.6,0.1-1.1,0.4-1.6c0.3-0.5,0.6-0.9,1.1-1.2c0.5-0.3,1-0.6,1.6-0.8c0.6-0.2,1.3-0.3,2.1-0.3c0.7,0,1.4,0.1,2,0.3
		c0.6,0.2,1.2,0.5,1.6,0.8c0.4,0.4,0.8,0.8,1,1.3c0.3,0.5,0.4,1.1,0.4,1.7h-3.2c0-0.3,0-0.5-0.1-0.7c-0.1-0.2-0.2-0.4-0.4-0.5
		c-0.2-0.2-0.4-0.3-0.6-0.4c-0.2-0.1-0.5-0.1-0.8-0.1c-0.3,0-0.6,0-0.8,0.1c-0.2,0.1-0.4,0.2-0.6,0.3c-0.2,0.1-0.3,0.3-0.4,0.4
		c-0.1,0.2-0.1,0.3-0.1,0.5c0,0.2,0.1,0.4,0.2,0.6c0.1,0.2,0.3,0.3,0.5,0.5c0.2,0.1,0.5,0.3,0.8,0.4c0.3,0.1,0.7,0.3,1,0.4
		c0.7,0.2,1.4,0.5,1.9,0.8c0.6,0.3,1,0.6,1.4,1c0.4,0.4,0.7,0.8,0.9,1.2c0.2,0.5,0.3,1,0.3,1.5c0,0.6-0.1,1.1-0.4,1.6
		c-0.2,0.5-0.6,0.9-1,1.2c-0.4,0.3-1,0.6-1.6,0.7c-0.6,0.2-1.3,0.2-2.1,0.2c-0.5,0-0.9,0-1.4-0.1c-0.5-0.1-0.9-0.2-1.3-0.4
		c-0.4-0.2-0.8-0.4-1.2-0.6c-0.4-0.2-0.7-0.5-0.9-0.9c-0.3-0.3-0.5-0.7-0.6-1.2c-0.2-0.4-0.2-0.9-0.2-1.4h3.3c0,0.4,0.1,0.7,0.2,1
		c0.1,0.3,0.3,0.5,0.5,0.7s0.5,0.3,0.7,0.4c0.3,0.1,0.6,0.1,1,0.1c0.3,0,0.6,0,0.8-0.1c0.2-0.1,0.4-0.2,0.5-0.3
		c0.1-0.1,0.2-0.3,0.3-0.4C42.2,100.3,42.3,100.1,42.3,99.9z"/>
	<path fill="#FFFFFF" d="M57.8,92.5h-4.1v11h-3.3v-11h-4V90h11.3V92.5z"/>
	<path fill="#FFFFFF" d="M70.3,97c0,1-0.1,2-0.4,2.8c-0.3,0.8-0.7,1.5-1.2,2.1c-0.5,0.6-1.1,1-1.9,1.3c-0.7,0.3-1.5,0.5-2.4,0.5
		c-0.9,0-1.7-0.2-2.4-0.5c-0.7-0.3-1.4-0.7-1.9-1.3c-0.5-0.6-0.9-1.3-1.2-2.1c-0.3-0.8-0.4-1.8-0.4-2.8v-0.5c0-1,0.1-2,0.4-2.8
		c0.3-0.8,0.7-1.5,1.2-2.1c0.5-0.6,1.1-1,1.9-1.3s1.5-0.5,2.4-0.5c0.9,0,1.7,0.2,2.4,0.5s1.3,0.8,1.9,1.3c0.5,0.6,0.9,1.3,1.2,2.1
		c0.3,0.8,0.4,1.8,0.4,2.8V97z M67,96.5c0-1.3-0.2-2.4-0.7-3.1c-0.4-0.7-1.1-1-1.9-1c-0.9,0-1.5,0.3-2,1c-0.4,0.7-0.6,1.7-0.6,3.1
		V97c0,1.3,0.2,2.3,0.7,3.1c0.4,0.7,1.1,1.1,2,1.1c0.8,0,1.5-0.4,1.9-1.1c0.4-0.7,0.7-1.7,0.7-3.1V96.5z"/>
	<path fill="#FFFFFF" d="M76.3,90l3,9.4l3-9.4h4.3v13.5h-3.3v-3.2l0.3-6.5l-3.3,9.6h-2.2L75,93.9l0.3,6.5v3.2H72V90H76.3z"/>
	<path fill="#FFFFFF" d="M97,97.8h-5.1v3.2h6v2.5h-9.3V90H98v2.5h-6.1v2.8H97V97.8z"/>
	<path fill="#FFFFFF" d="M104.3,98.8h-1.8v4.8h-3.3V90h5.3c0.8,0,1.5,0.1,2.1,0.3c0.6,0.2,1.2,0.4,1.6,0.8c0.4,0.3,0.8,0.8,1,1.3
		c0.2,0.5,0.4,1.1,0.4,1.8c0,0.5-0.1,1-0.2,1.4c-0.1,0.4-0.3,0.8-0.5,1.1c-0.2,0.3-0.5,0.6-0.7,0.8c-0.3,0.2-0.6,0.4-1,0.6l2.8,5.4
		v0.1h-3.5L104.3,98.8z M102.6,96.2h2.1c0.6,0,1.1-0.2,1.4-0.5c0.3-0.3,0.5-0.8,0.5-1.4s-0.2-1-0.5-1.4s-0.8-0.5-1.4-0.5h-2.1V96.2z
		"/>
</g>
</svg>
