<?xml version="1.0" encoding="utf-8"?>
<!-- Generator: Adobe Illustrator 19.1.0, SVG Export Plug-In . SVG Version: 6.00 Build 0)  -->
<!DOCTYPE svg PUBLIC "-//W3C//DTD SVG 1.1//EN" "http://www.w3.org/Graphics/SVG/1.1/DTD/svg11.dtd">
<svg version="1.1" id="Layer_1" xmlns="http://www.w3.org/2000/svg" xmlns:xlink="http://www.w3.org/1999/xlink" x="0px" y="0px"
	 viewBox="0 0 120 112" enable-background="new 0 0 120 112" xml:space="preserve">
<g>
	<path fill="#9E9E9E" d="M77.7,71.4l0.4,0.6l-13.3-8.3L60,87l-4.8-23.2L41.9,72l0.4-0.6l7.9-12.7L27,53.9l23.2-4.8l-8.3-13.3
		l0.6,0.4L34,27.6c6.7-6.6,15.9-10.7,26-10.7S79.3,21,86,27.6l-8.6,8.5l0.6-0.4l-8.3,13.3L93,53.9l-23.2,4.8L77.7,71.4z"/>
	<path fill="#EEEEEE" d="M60,16.9c20.4,0,37,16.6,37,37s-16.6,37-37,37c-20.4,0-37-16.6-37-37S39.6,16.9,60,16.9L60,16.9z M60,11.9
		c-23.1,0-42,18.8-42,42s18.8,42,42,42c23.1,0,42-18.8,42-42S83.1,11.9,60,11.9L60,11.9z"/>
	<polygon fill="#EEEEEE" points="77.7,71.4 78.1,72 64.8,63.7 60,87 55.2,63.7 41.9,72 42.3,71.4 50.2,58.7 27,53.9 50.2,49.1 
		41.9,35.8 42.5,36.2 55.2,44.1 60,20.8 64.8,44.1 77.5,36.2 78.1,35.8 69.8,49.1 93,53.9 69.8,58.7 	"/>
	<path fill="#AFAFAF" d="M97,53.9c0,10.2-4.1,19.3-10.7,26l-8.5-8.5l-7.9-12.7L93,53.9l-23.2-4.8l8.3-13.3l-0.6,0.4l8.6-8.5
		C92.8,34.3,97,43.6,97,53.9z"/>
	<path fill="#BDBDBD" d="M86.3,79.9c-6.7,6.8-16,11-26.3,11s-19.6-4.2-26.3-11l8.5-8.5L41.9,72l13.3-8.3L60,87l4.8-23.2L78.1,72
		l-0.4-0.6L86.3,79.9z"/>
	<path fill="#AFAFAF" d="M27,53.9l23.2,4.8l-7.9,12.7l-8.5,8.5C27.1,73.2,23,64.1,23,53.9c0-10.3,4.2-19.6,10.9-26.3l8.6,8.5
		l-0.6-0.4l8.3,13.3L27,53.9z"/>
	<polygon fill="#4DB6AC" points="56.5,47.7 90.3,36.7 63.5,60.1 	"/>
	<polygon fill="#FF5722" points="63.5,60.1 29.7,71.1 56.5,47.7 	"/>
	<polygon fill="#1CA295" points="63.5,60.1 60,53.9 90.3,36.7 	"/>
	<polygon fill="#EF4F1D" points="63.5,60.1 29.7,71.1 60,53.9 	"/>
	<polygon fill="#FFC107" points="104.1,58 97,53.9 104.1,49.8 	"/>
	<polygon fill="#FFB706" points="104.1,58 97,53.9 104.1,53.9 	"/>
	<polygon fill="#FFC107" points="15.9,58 23,53.9 15.9,49.8 	"/>
	<polygon fill="#FFB706" points="15.9,58 23,53.9 15.9,53.9 	"/>
	<polygon fill="#FFC107" points="64.1,98 60,90.9 55.9,98 	"/>
	<polygon fill="#FFB706" points="64.1,98 60,90.9 60,98 	"/>
	<polygon fill="#FFC107" points="64.1,9.8 60,16.9 55.9,9.8 	"/>
	<polygon fill="#FFB706" points="64.1,9.8 60,16.9 60,9.8 	"/>
	<path fill="#616161" d="M60,6.1c-26.4,0-47.8,21.4-47.8,47.8c0,26.4,21.4,47.8,47.8,47.8c26.4,0,47.8-21.4,47.8-47.8
		C107.8,27.5,86.4,6.1,60,6.1z M60,95.9c-23.1,0-42-18.8-42-42s18.8-42,42-42c23.2,0,42,18.8,42,42S83.2,95.9,60,95.9z"/>
	<path fill="#5B5B5B" d="M12.2,54.6H18c0.4,22.8,19.1,41.3,42,41.3c22.9,0,41.6-18.4,42-41.3h5.8c-0.4,26.1-21.6,47.1-47.8,47.1
		C33.8,101.7,12.6,80.7,12.2,54.6z"/>
</g>
<path fill="#4DB6AC" d="M114.4,110.3H5.6c-2.9,0-5.2-2.3-5.2-5.2V86c0-2.9,2.3-5.2,5.2-5.2h108.7c2.9,0,5.2,2.3,5.2,5.2v19.1
	C119.6,108,117.2,110.3,114.4,110.3z"/>
<path fill="#009688" d="M114.4,112H5.6c-2.9,0-5.2-2.3-5.2-5.2V86.7c0-2.9,2.3-5.2,5.2-5.2h108.7c2.9,0,5.2,2.3,5.2,5.2v20.1
	C119.6,109.7,117.2,112,114.4,112z"/>
<g>
	<path fill="#FFFFFF" d="M7,104.8V88.6h5.8c1,0,1.9,0.1,2.7,0.3c0.8,0.2,1.5,0.5,2,0.8s1,0.8,1.3,1.4c0.3,0.6,0.4,1.2,0.4,2
		c0,0.4,0,0.7-0.1,1.1s-0.2,0.7-0.4,1c-0.2,0.3-0.4,0.6-0.7,0.8c-0.3,0.2-0.6,0.4-1.1,0.6c0.5,0.1,0.9,0.3,1.2,0.5
		c0.3,0.2,0.6,0.5,0.8,0.8c0.2,0.3,0.4,0.6,0.4,1c0.1,0.4,0.1,0.7,0.1,1.1c0,1.6-0.5,2.8-1.5,3.6s-2.5,1.2-4.5,1.2H7z M10.9,95.4h2
		c0.9,0,1.5-0.2,1.8-0.5c0.4-0.3,0.5-0.8,0.5-1.3c0-0.7-0.2-1.2-0.6-1.5c-0.4-0.3-1-0.4-1.9-0.4h-1.9V95.4z M10.9,97.9v3.9h2.6
		c0.4,0,0.7,0,1-0.1c0.3-0.1,0.5-0.2,0.7-0.4c0.2-0.2,0.3-0.4,0.4-0.6c0.1-0.2,0.1-0.5,0.1-0.7c0-0.3,0-0.6-0.1-0.8
		c-0.1-0.3-0.2-0.5-0.4-0.6c-0.2-0.2-0.4-0.3-0.6-0.4c-0.3-0.1-0.6-0.1-0.9-0.1H10.9z"/>
	<path fill="#FFFFFF" d="M34.3,88.6v10.6c0,0.9-0.2,1.8-0.5,2.5c-0.3,0.7-0.7,1.3-1.3,1.8c-0.6,0.5-1.2,0.9-2,1.1
		c-0.8,0.3-1.6,0.4-2.6,0.4c-0.9,0-1.8-0.1-2.6-0.4c-0.8-0.3-1.5-0.6-2-1.1c-0.6-0.5-1-1.1-1.3-1.8c-0.3-0.7-0.5-1.6-0.5-2.5V88.6
		h3.9v10.6c0,1,0.2,1.7,0.6,2.2c0.4,0.4,1,0.7,1.8,0.7c0.8,0,1.4-0.2,1.8-0.7c0.4-0.4,0.6-1.2,0.6-2.2V88.6H34.3z"/>
	<path fill="#FFFFFF" d="M45.1,100.5c0-0.3,0-0.5-0.1-0.7c-0.1-0.2-0.2-0.4-0.4-0.6c-0.2-0.2-0.5-0.4-0.9-0.5
		c-0.4-0.2-0.9-0.4-1.5-0.6c-0.7-0.2-1.4-0.5-2.1-0.8c-0.7-0.3-1.2-0.6-1.8-1.1s-0.9-0.9-1.2-1.4s-0.5-1.2-0.5-1.9
		c0-0.7,0.2-1.3,0.5-1.9c0.3-0.6,0.7-1,1.3-1.4s1.2-0.7,2-0.9s1.6-0.3,2.5-0.3c0.9,0,1.7,0.1,2.4,0.4s1.4,0.6,1.9,1
		c0.5,0.4,0.9,1,1.2,1.6s0.4,1.3,0.4,2.1h-3.9c0-0.3,0-0.6-0.1-0.8c-0.1-0.3-0.2-0.5-0.4-0.7c-0.2-0.2-0.4-0.3-0.7-0.4
		c-0.3-0.1-0.6-0.2-1-0.2c-0.4,0-0.7,0-1,0.1s-0.5,0.2-0.7,0.4c-0.2,0.2-0.3,0.3-0.4,0.5s-0.1,0.4-0.1,0.6c0,0.2,0.1,0.5,0.2,0.7
		c0.1,0.2,0.3,0.4,0.6,0.6s0.6,0.3,0.9,0.5c0.4,0.2,0.8,0.3,1.2,0.5c0.9,0.3,1.6,0.6,2.3,0.9c0.7,0.3,1.2,0.7,1.7,1.1
		c0.5,0.4,0.8,0.9,1.1,1.5c0.2,0.5,0.4,1.2,0.4,1.8c0,0.7-0.1,1.4-0.4,1.9c-0.3,0.6-0.7,1-1.2,1.4s-1.2,0.7-1.9,0.9
		c-0.7,0.2-1.6,0.3-2.5,0.3c-0.6,0-1.1,0-1.7-0.1c-0.5-0.1-1.1-0.2-1.6-0.4c-0.5-0.2-1-0.4-1.4-0.7c-0.4-0.3-0.8-0.6-1.1-1
		c-0.3-0.4-0.6-0.9-0.7-1.4c-0.2-0.5-0.3-1.1-0.3-1.7h3.9c0,0.5,0.1,0.9,0.2,1.2c0.1,0.3,0.3,0.6,0.6,0.8c0.2,0.2,0.5,0.3,0.9,0.4
		s0.8,0.1,1.2,0.1c0.4,0,0.7,0,0.9-0.1s0.5-0.2,0.6-0.3s0.3-0.3,0.4-0.5C45.1,100.9,45.1,100.7,45.1,100.5z"/>
	<path fill="#FFFFFF" d="M55.1,104.8h-3.9V88.6h3.9V104.8z"/>
	<path fill="#FFFFFF" d="M71.4,104.8h-3.9l-5.7-10.1v10.1h-3.9V88.6h3.9l5.7,10.1V88.6h3.9V104.8z"/>
	<path fill="#FFFFFF" d="M83.8,97.9h-6.1v3.9H85v3H73.8V88.6H85v3h-7.3V95h6.1V97.9z"/>
	<path fill="#FFFFFF" d="M94.9,100.5c0-0.3,0-0.5-0.1-0.7c-0.1-0.2-0.2-0.4-0.4-0.6c-0.2-0.2-0.5-0.4-0.9-0.5
		c-0.4-0.2-0.9-0.4-1.5-0.6c-0.7-0.2-1.4-0.5-2.1-0.8c-0.7-0.3-1.2-0.6-1.8-1.1s-0.9-0.9-1.2-1.4s-0.5-1.2-0.5-1.9
		c0-0.7,0.2-1.3,0.5-1.9c0.3-0.6,0.7-1,1.3-1.4s1.2-0.7,2-0.9s1.6-0.3,2.5-0.3c0.9,0,1.7,0.1,2.4,0.4s1.4,0.6,1.9,1
		c0.5,0.4,0.9,1,1.2,1.6s0.4,1.3,0.4,2.1h-3.9c0-0.3,0-0.6-0.1-0.8c-0.1-0.3-0.2-0.5-0.4-0.7c-0.2-0.2-0.4-0.3-0.7-0.4
		c-0.3-0.1-0.6-0.2-1-0.2c-0.4,0-0.7,0-1,0.1s-0.5,0.2-0.7,0.4c-0.2,0.2-0.3,0.3-0.4,0.5s-0.1,0.4-0.1,0.6c0,0.2,0.1,0.5,0.2,0.7
		c0.1,0.2,0.3,0.4,0.6,0.6s0.6,0.3,0.9,0.5c0.4,0.2,0.8,0.3,1.2,0.5c0.9,0.3,1.6,0.6,2.3,0.9c0.7,0.3,1.2,0.7,1.7,1.1
		c0.5,0.4,0.8,0.9,1.1,1.5c0.2,0.5,0.4,1.2,0.4,1.8c0,0.7-0.1,1.4-0.4,1.9c-0.3,0.6-0.7,1-1.2,1.4s-1.2,0.7-1.9,0.9
		c-0.7,0.2-1.6,0.3-2.5,0.3c-0.6,0-1.1,0-1.7-0.1c-0.5-0.1-1.1-0.2-1.6-0.4c-0.5-0.2-1-0.4-1.4-0.7c-0.4-0.3-0.8-0.6-1.1-1
		c-0.3-0.4-0.6-0.9-0.7-1.4c-0.2-0.5-0.3-1.1-0.3-1.7h3.9c0,0.5,0.1,0.9,0.2,1.2c0.1,0.3,0.3,0.6,0.6,0.8c0.2,0.2,0.5,0.3,0.9,0.4
		s0.8,0.1,1.2,0.1c0.4,0,0.7,0,0.9-0.1s0.5-0.2,0.6-0.3s0.3-0.3,0.4-0.5C94.8,100.9,94.9,100.7,94.9,100.5z"/>
	<path fill="#FFFFFF" d="M109.1,100.5c0-0.3,0-0.5-0.1-0.7c-0.1-0.2-0.2-0.4-0.4-0.6c-0.2-0.2-0.5-0.4-0.9-0.5
		c-0.4-0.2-0.9-0.4-1.5-0.6c-0.7-0.2-1.4-0.5-2.1-0.8c-0.7-0.3-1.2-0.6-1.8-1.1s-0.9-0.9-1.2-1.4s-0.5-1.2-0.5-1.9
		c0-0.7,0.2-1.3,0.5-1.9c0.3-0.6,0.7-1,1.3-1.4s1.2-0.7,2-0.9s1.6-0.3,2.5-0.3c0.9,0,1.7,0.1,2.4,0.4s1.4,0.6,1.9,1
		c0.5,0.4,0.9,1,1.2,1.6s0.4,1.3,0.4,2.1h-3.9c0-0.3,0-0.6-0.1-0.8c-0.1-0.3-0.2-0.5-0.4-0.7c-0.2-0.2-0.4-0.3-0.7-0.4
		c-0.3-0.1-0.6-0.2-1-0.2c-0.4,0-0.7,0-1,0.1s-0.5,0.2-0.7,0.4c-0.2,0.2-0.3,0.3-0.4,0.5s-0.1,0.4-0.1,0.6c0,0.2,0.1,0.5,0.2,0.7
		c0.1,0.2,0.3,0.4,0.6,0.6s0.6,0.3,0.9,0.5c0.4,0.2,0.8,0.3,1.2,0.5c0.9,0.3,1.6,0.6,2.3,0.9c0.7,0.3,1.2,0.7,1.7,1.1
		c0.5,0.4,0.8,0.9,1.1,1.5c0.2,0.5,0.4,1.2,0.4,1.8c0,0.7-0.1,1.4-0.4,1.9c-0.3,0.6-0.7,1-1.2,1.4s-1.2,0.7-1.9,0.9
		c-0.7,0.2-1.6,0.3-2.5,0.3c-0.6,0-1.1,0-1.7-0.1c-0.5-0.1-1.1-0.2-1.6-0.4c-0.5-0.2-1-0.4-1.4-0.7c-0.4-0.3-0.8-0.6-1.1-1
		c-0.3-0.4-0.6-0.9-0.7-1.4c-0.2-0.5-0.3-1.1-0.3-1.7h3.9c0,0.5,0.1,0.9,0.2,1.2c0.1,0.3,0.3,0.6,0.6,0.8c0.2,0.2,0.5,0.3,0.9,0.4
		s0.8,0.1,1.2,0.1c0.4,0,0.7,0,0.9-0.1s0.5-0.2,0.6-0.3s0.3-0.3,0.4-0.5C109.1,100.9,109.1,100.7,109.1,100.5z"/>
</g>
</svg>
