<?xml version="1.0" encoding="utf-8"?>
<!-- Generator: Adobe Illustrator 19.1.0, SVG Export Plug-In . SVG Version: 6.00 Build 0)  -->
<!DOCTYPE svg PUBLIC "-//W3C//DTD SVG 1.1//EN" "http://www.w3.org/Graphics/SVG/1.1/DTD/svg11.dtd">
<svg version="1.1" id="Layer_1" xmlns="http://www.w3.org/2000/svg" xmlns:xlink="http://www.w3.org/1999/xlink" x="0px" y="0px"
	 viewBox="0 0 120 112" enable-background="new 0 0 120 112" xml:space="preserve">
<g>
	<path fill="#FFC107" d="M100.4,55.5H84.6c-0.6,0-1-0.5-1-1v0c0-0.6,0.5-1,1-1h15.8c0.6,0,1,0.5,1,1v0
		C101.4,55.1,101,55.5,100.4,55.5z"/>
	<rect x="86.1" y="53.5" fill="#FFB300" width="1" height="2.1"/>
	<rect x="92" y="53.5" fill="#FFB300" width="1" height="2.1"/>
	<rect x="97.9" y="53.5" fill="#FFB300" width="1" height="2.1"/>
	<rect x="94.9" y="53.5" fill="#FFB300" width="1" height="2.1"/>
	<rect x="89" y="53.5" fill="#FFB300" width="1" height="2.1"/>
	<path fill="#FFC107" d="M103.3,52.6H87.5c-0.6,0-1-0.5-1-1v0c0-0.6,0.5-1,1-1l15.8,0c0.6,0,1,0.5,1,1v0
		C104.4,52.1,103.9,52.6,103.3,52.6z"/>
	<rect x="89" y="50.5" fill="#FFB300" width="1" height="2.1"/>
	<rect x="94.9" y="50.5" fill="#FFB300" width="1" height="2.1"/>
	<rect x="100.8" y="50.5" fill="#FFB300" width="1" height="2.1"/>
	<rect x="97.9" y="50.5" fill="#FFB300" width="1" height="2.1"/>
	<rect x="92" y="50.5" fill="#FFB300" width="1" height="2.1"/>
	<path fill="#FFC107" d="M99.6,49.8H83.8c-0.6,0-1-0.5-1-1v0c0-0.6,0.5-1,1-1h15.8c0.6,0,1,0.5,1,1v0
		C100.7,49.4,100.2,49.8,99.6,49.8z"/>
	<rect x="85.3" y="47.8" fill="#FFB300" width="1" height="2.1"/>
	<rect x="91.2" y="47.8" fill="#FFB300" width="1" height="2.1"/>
	<rect x="97.1" y="47.8" fill="#FFB300" width="1" height="2.1"/>
	<rect x="94.1" y="47.8" fill="#FFB300" width="1" height="2.1"/>
	<rect x="88.3" y="47.8" fill="#FFB300" width="1" height="2.1"/>
	<path fill="#FFC107" d="M34.3,55.5H18.4c-0.6,0-1-0.5-1-1v0c0-0.6,0.5-1,1-1h15.8c0.6,0,1,0.5,1,1v0C35.3,55.1,34.8,55.5,34.3,55.5
		z"/>
	<rect x="20" y="53.5" fill="#FFB300" width="1" height="2.1"/>
	<rect x="25.8" y="53.5" fill="#FFB300" width="1" height="2.1"/>
	<rect x="31.7" y="53.5" fill="#FFB300" width="1" height="2.1"/>
	<rect x="28.8" y="53.5" fill="#FFB300" width="1" height="2.1"/>
	<rect x="22.9" y="53.5" fill="#FFB300" width="1" height="2.1"/>
	<path fill="#FFC107" d="M37.2,52.6H21.4c-0.6,0-1-0.5-1-1v0c0-0.6,0.5-1,1-1l15.8,0c0.6,0,1,0.5,1,1v0
		C38.2,52.1,37.8,52.6,37.2,52.6z"/>
	<rect x="22.9" y="50.5" fill="#FFB300" width="1" height="2.1"/>
	<rect x="28.8" y="50.5" fill="#FFB300" width="1" height="2.1"/>
	<rect x="34.7" y="50.5" fill="#FFB300" width="1" height="2.1"/>
	<rect x="31.7" y="50.5" fill="#FFB300" width="1" height="2.1"/>
	<rect x="25.8" y="50.5" fill="#FFB300" width="1" height="2.1"/>
	<path fill="#FFC107" d="M33.5,49.8H17.6c-0.6,0-1-0.5-1-1v0c0-0.6,0.5-1,1-1h15.8c0.6,0,1,0.5,1,1v0C34.5,49.4,34.1,49.8,33.5,49.8
		z"/>
	<rect x="19.2" y="47.8" fill="#FFB300" width="1" height="2.1"/>
	<rect x="25.1" y="47.8" fill="#FFB300" width="1" height="2.1"/>
	<rect x="30.9" y="47.8" fill="#FFB300" width="1" height="2.1"/>
	<rect x="28" y="47.8" fill="#FFB300" width="1" height="2.1"/>
	<rect x="22.1" y="47.8" fill="#FFB300" width="1" height="2.1"/>
	<path fill="#795548" d="M76.6,60.6c0,6,7.4,10.8,16.5,10.8c9.1,0,16.5-4.8,16.5-10.8H76.6z"/>
	<path fill="#795548" d="M43.4,60.6c0,6-7.4,10.8-16.5,10.8c-9.1,0-16.5-4.8-16.5-10.8H43.4z"/>
	<path fill="#714F43" d="M31.9,70.9c-1.6,0.3-3.2,0.5-4.9,0.5c-9.1,0-16.5-4.8-16.5-10.8h11.1L31.9,70.9z"/>
	<path fill="#714F43" d="M88.1,70.9c1.6,0.3,3.2,0.5,4.9,0.5c9.1,0,16.5-4.8,16.5-10.8H98.5L88.1,70.9z"/>
	<path fill="#B0BEC5" d="M43.2,57.1L26.9,27.7L10.6,57.1l-0.9-0.5l16.7-30.1c0.2-0.3,0.7-0.3,0.9,0l16.7,30.1L43.2,57.1z"/>
	<rect x="26.4" y="26.2" fill="#B0BEC5" width="1" height="30.7"/>
	<path fill="#B0BEC5" d="M109.4,57.1L93.1,27.7L76.8,57.1l-0.9-0.5l16.7-30.1c0.2-0.3,0.7-0.3,0.9,0l16.7,30.1L109.4,57.1z"/>
	<rect x="92.6" y="26.2" fill="#B0BEC5" width="1" height="30.7"/>
	<path fill="#795548" d="M63,28.8c0,0-0.1,0.2-0.3,0.5c-0.2,0.3-0.3,0.8-0.5,1.5c-0.2,0.6-0.3,1.4-0.3,2.3c0,0.9,0,1.9,0.1,3
		c0.1,2.2,0.2,4.8,0.3,7.5c0.1,2.8,0.3,5.7,0.4,8.6c0.2,2.9,0.3,5.9,0.6,8.6c0.2,2.8,0.4,5.3,0.6,7.5c0.4,4.4,0.7,7.3,0.7,7.3h-9.2
		c0,0,0.3-2.9,0.7-7.3c0.2-2.2,0.4-4.8,0.6-7.5c0.2-2.8,0.4-5.7,0.6-8.6c0.1-2.9,0.3-5.9,0.4-8.6c0.1-2.8,0.2-5.3,0.3-7.5
		c0-1.1,0.1-2.1,0.1-3c0-0.9-0.2-1.7-0.3-2.3c-0.2-0.6-0.3-1.1-0.5-1.5C57.1,29,57,28.8,57,28.8H63z"/>
	<rect x="58.5" y="12" fill="#795548" width="3" height="15.8"/>
	<path fill="#795548" d="M27.5,25.6c0,0,0.5,0.2,1.4,0.4c0.5,0.1,1,0.3,1.5,0.4c0.6,0.1,1.3,0.2,2,0.3c1.5,0.1,3.2,0,4.9-0.4
		c0.9-0.2,1.7-0.5,2.6-0.9c0.9-0.4,1.9-0.9,3-1.2c1.1-0.4,2.2-0.7,3.3-1c1.1-0.3,2.2-0.5,3.3-0.6c2.1-0.2,4.2-0.2,5.9-0.1
		c0.9,0.1,1.7,0.2,2.4,0.3c0.7,0.1,1.2,0.2,1.7,0.3c0.9,0.2,1.4,0.3,1.4,0.3l-1.5,5.8c0,0-0.5-0.2-1.4-0.5c-0.4-0.1-0.9-0.3-1.5-0.5
		c-0.5-0.2-1.2-0.3-1.9-0.5c-1.4-0.3-3-0.5-4.8-0.6c-0.9,0-1.8,0-2.8,0.1c-0.9,0.1-1.9,0.3-2.8,0.5c-0.9,0.2-1.9,0.5-3,0.8
		c-1.1,0.3-2.2,0.6-3.3,0.7c-2.1,0.3-4.2,0.1-5.8-0.3c-0.8-0.2-1.6-0.4-2.2-0.6c-0.7-0.2-1.2-0.5-1.6-0.6c-0.8-0.4-1.3-0.6-1.3-0.6
		L27.5,25.6z"/>
	<path fill="#FFC107" d="M44.2,60.6H9.7c-1.1,0-2-0.9-2-2v-0.2c0-1.1,0.9-2,2-2h34.5c1.1,0,2,0.9,2,2v0.2
		C46.2,59.7,45.3,60.6,44.2,60.6z"/>
	<circle fill="#FFC107" cx="26.9" cy="26.7" r="3.6"/>
	<path fill="#795548" d="M93.2,27.3c0,0-0.5,0.2-1.3,0.6c-0.4,0.2-1,0.4-1.6,0.6c-0.6,0.2-1.4,0.4-2.2,0.6c-1.7,0.3-3.7,0.5-5.8,0.3
		c-1.1-0.1-2.2-0.3-3.3-0.7c-1-0.3-2-0.6-3-0.8c-0.9-0.2-1.9-0.4-2.8-0.5c-0.9-0.1-1.9-0.2-2.8-0.1c-1.8,0-3.5,0.2-4.8,0.6
		c-0.7,0.2-1.3,0.3-1.9,0.5c-0.6,0.2-1.1,0.4-1.5,0.5c-0.9,0.3-1.4,0.5-1.4,0.5l-1.5-5.8c0,0,0.5-0.1,1.4-0.3c0.5-0.1,1-0.2,1.7-0.3
		c0.7-0.1,1.5-0.2,2.4-0.3c1.7-0.2,3.8-0.2,5.9,0.1c1.1,0.1,2.2,0.3,3.3,0.6c1.1,0.3,2.2,0.6,3.3,1c1.1,0.4,2,0.8,3,1.2
		c0.9,0.4,1.7,0.7,2.6,0.9c1.7,0.4,3.5,0.5,4.9,0.4c0.7-0.1,1.4-0.2,2-0.3c0.6-0.1,1.1-0.3,1.5-0.4c0.9-0.3,1.4-0.4,1.4-0.4
		L93.2,27.3z"/>
	<path fill="#FFC107" d="M75.8,60.6h34.5c1.1,0,2-0.9,2-2v-0.2c0-1.1-0.9-2-2-2H75.8c-1.1,0-2,0.9-2,2v0.2
		C73.8,59.7,74.7,60.6,75.8,60.6z"/>
	<circle fill="#FFC107" cx="93.1" cy="26.7" r="3.6"/>
	<path fill="#FFB300" d="M23.3,26.7c0-1,0.4-1.9,1.1-2.6l5.1,5.1c-0.7,0.7-1.5,1.1-2.5,1.1C24.9,30.3,23.3,28.7,23.3,26.7z"/>
	<path fill="#FFB300" d="M96.7,26.7c0-1-0.4-1.9-1.1-2.6l-5.1,5.1c0.7,0.7,1.5,1.1,2.5,1.1C95.1,30.3,96.7,28.7,96.7,26.7z"/>
	<path fill="#714F43" d="M60,28.8v47h-4.6c0,0,0.3-2.9,0.7-7.3c0.2-2.2,0.4-4.8,0.6-7.5c0.2-2.8,0.4-5.7,0.6-8.6
		c0.1-2.9,0.3-5.9,0.4-8.6c0.1-2.8,0.2-5.3,0.3-7.5c0-1.1,0.1-2.1,0.1-3c0-0.9-0.2-1.7-0.3-2.3c-0.2-0.6-0.3-1.1-0.5-1.5
		C57.1,29,57,28.8,57,28.8H60z"/>
	<rect x="58.5" y="12" fill="#714F43" width="1.5" height="15.9"/>
	<circle fill="#FFC107" cx="60" cy="25.8" r="5.6"/>
	<path fill="#FFAD04" d="M60,21.7c-1.1,0-2.2,0.5-2.9,1.2l0.7,0.7c0.6-0.6,1.4-0.9,2.2-0.9c0.9,0,1.7,0.4,2.2,0.9l0.7-0.7
		C62.2,22.2,61.1,21.7,60,21.7z"/>
	<path fill="#FFA703" d="M57.8,28l-0.7,0.7c-0.8-0.7-1.2-1.8-1.2-2.9c0-1.1,0.5-2.2,1.2-2.9l0.7,0.7c-0.6,0.6-0.9,1.3-0.9,2.2
		C56.9,26.7,57.2,27.5,57.8,28z"/>
	<path fill="#FFB706" d="M55.9,25.8c0,1.1,0.5,2.2,1.2,2.9L56,29.8l0,0c-2.2-2.2-2.2-5.7,0-7.9l1.1,1.1
		C56.3,23.7,55.9,24.7,55.9,25.8z"/>
	<path fill="#FFB706" d="M60,25.8L57.8,28c-0.6-0.6-0.9-1.3-0.9-2.2c0-0.9,0.3-1.6,0.9-2.2L60,25.8z"/>
	<path fill="#FFA202" d="M62.9,28.7c-0.7,0.8-1.8,1.2-2.9,1.2s-2.1-0.5-2.9-1.2l0.7-0.7c0.6,0.6,1.3,0.9,2.2,0.9
		c0.9,0,1.6-0.4,2.2-0.9L62.9,28.7z"/>
	<path fill="#FFAF05" d="M60,28.9c-0.8,0-1.6-0.4-2.2-0.9l2.2-2.2l2.2,2.2C61.6,28.6,60.8,28.9,60,28.9z"/>
	<path fill="#FFAF05" d="M64,29.8c-0.1,0.1-0.3,0.3-0.4,0.4c-0.3,0.2-0.6,0.4-0.9,0.6c-2.1,1.1-4.8,0.8-6.6-1l1.1-1.1
		c0.7,0.8,1.8,1.2,2.9,1.2s2.2-0.5,2.9-1.2L64,29.8z"/>
	<path fill="#FF8F00" d="M62.6,30.8c0.3-0.2,0.6-0.4,0.9-0.6C63.2,30.4,62.9,30.6,62.6,30.8z"/>
	<path fill="#FFA703" d="M64.1,25.8c0,1.1-0.5,2.2-1.2,2.9L62.2,28c0.6-0.6,0.9-1.3,0.9-2.2c0-0.9-0.3-1.6-0.9-2.2l0.7-0.7
		C63.7,23.7,64.1,24.7,64.1,25.8z"/>
	<path fill="#FFB706" d="M63.1,25.8c0,0.9-0.3,1.6-0.9,2.2L60,25.8l2.2-2.2C62.8,24.2,63.1,25,63.1,25.8z"/>
	<path fill="#FFB706" d="M64,29.8c-0.1,0.1-0.3,0.3-0.4,0.4C63.7,30,63.8,29.9,64,29.8l-1.1-1.1c0.8-0.7,1.2-1.8,1.2-2.9
		c0-1.1-0.5-2.2-1.2-2.9l1.1-1.1C66.2,24.1,66.1,27.6,64,29.8z"/>
	<path fill="#FFC107" d="M46.7,77.6h26.5c1.1,0,2-0.9,2-2v0c0-1.1-0.9-2-2-2H46.7c-1.1,0-2,0.9-2,2v0C44.8,76.7,45.7,77.6,46.7,77.6
		z"/>
	<path fill="#795548" d="M41,81.5h38c1.1,0,2-0.9,2-2l0,0c0-1.1-0.9-2-2-2H41c-1.1,0-2,0.9-2,2l0,0C39,80.6,39.9,81.5,41,81.5z"/>
	<path fill="#FFC107" d="M63.4,11.7c0,3.1-3.4,5.6-3.4,5.6s-3.4-2.5-3.4-5.6S60,6.1,60,6.1S63.4,8.6,63.4,11.7z"/>
	<path fill="#FFB706" d="M57.4,14.4c0.1,0.1,0.1,0.2,0.2,0.3c-0.6-0.9-1-1.9-1-3c0-1,0.3-1.9,0.8-2.6l2.6,2.6L57.4,14.4z"/>
	<path fill="#FFAF05" d="M62.6,14.4c-0.1,0.1-0.1,0.2-0.2,0.3c-0.2,0.3-0.4,0.6-0.6,0.9c-0.9,1.1-1.8,1.8-1.8,1.8s-0.9-0.7-1.8-1.8
		c-0.2-0.3-0.4-0.6-0.6-0.9c-0.1-0.1-0.1-0.2-0.2-0.3l2.6-2.6L62.6,14.4z"/>
	<path fill="#FFB706" d="M62.4,14.7c0.1-0.1,0.1-0.2,0.2-0.3L60,11.8l2.6-2.6c0.5,0.8,0.8,1.7,0.8,2.6C63.4,12.8,63,13.9,62.4,14.7z
		"/>
	<path fill="#FFB300" d="M7.7,58.6v-0.1h38.5v0.1c0,1.1-0.9,2-2,2H9.7C8.6,60.6,7.7,59.7,7.7,58.6z"/>
	<path fill="#FFB300" d="M73.8,58.6v-0.1h38.5v0.1c0,1.1-0.9,2-2,2H75.8C74.7,60.6,73.8,59.7,73.8,58.6z"/>
	<path fill="#FFB300" d="M75.2,75.7c0,1-0.9,1.9-2,1.9H46.7c-0.5,0-1-0.2-1.4-0.6c-0.3-0.3-0.5-0.8-0.6-1.3H75.2z"/>
	<path fill="#714F43" d="M81,79.6c0,1.1-0.9,2-1.9,2H41c-0.5,0-1-0.2-1.4-0.6c-0.3-0.3-0.6-0.8-0.6-1.4H81z"/>
</g>
<path fill="#FFC107" d="M114.4,110.3H5.6c-2.9,0-5.2-2.3-5.2-5.2V86c0-2.9,2.3-5.2,5.2-5.2h108.7c2.9,0,5.2,2.3,5.2,5.2v19.1
	C119.6,108,117.2,110.3,114.4,110.3z"/>
<path fill="#FFB300" d="M114.4,112H5.6c-2.9,0-5.2-2.3-5.2-5.2V86.7c0-2.9,2.3-5.2,5.2-5.2h108.7c2.9,0,5.2,2.3,5.2,5.2v20.1
	C119.6,109.7,117.2,112,114.4,112z"/>
<g>
	<path fill="#FFFFFF" d="M23.7,98.3h-6.3v6.4h-3.9V88.6h10.8v3h-6.9v3.7h6.3V98.3z"/>
	<path fill="#FFFFFF" d="M30.1,104.8h-3.9V88.6h3.9V104.8z"/>
	<path fill="#FFFFFF" d="M46.3,104.8h-3.9l-5.7-10.1v10.1h-3.9V88.6h3.9l5.7,10.1V88.6h3.9V104.8z"/>
	<path fill="#FFFFFF" d="M58.1,101.8h-5.3l-0.9,3h-4.2l5.9-16.2h3.7l6,16.2h-4.2L58.1,101.8z M53.7,98.8h3.5l-1.7-5.6L53.7,98.8z"/>
	<path fill="#FFFFFF" d="M78,104.8h-3.9l-5.7-10.1v10.1h-3.9V88.6h3.9l5.7,10.1V88.6H78V104.8z"/>
	<path fill="#FFFFFF" d="M93.5,99.3c0,0.8-0.2,1.6-0.5,2.3c-0.3,0.7-0.8,1.3-1.4,1.8c-0.6,0.5-1.3,0.9-2.1,1.2
		c-0.8,0.3-1.7,0.4-2.7,0.4c-1.1,0-2-0.2-2.9-0.5c-0.8-0.4-1.6-0.9-2.2-1.6c-0.6-0.7-1-1.5-1.3-2.5c-0.3-1-0.5-2.1-0.5-3.3v-0.9
		c0-1.2,0.2-2.3,0.5-3.3c0.3-1,0.8-1.8,1.4-2.5c0.6-0.7,1.3-1.2,2.1-1.6c0.8-0.4,1.8-0.5,2.8-0.5c1.1,0,2,0.1,2.8,0.4
		s1.5,0.7,2.1,1.2c0.6,0.5,1,1.1,1.3,1.8s0.5,1.5,0.6,2.3h-3.9c0-0.5-0.1-0.9-0.2-1.2c-0.1-0.3-0.3-0.6-0.5-0.9s-0.5-0.4-0.9-0.5
		c-0.4-0.1-0.8-0.2-1.3-0.2c-0.5,0-0.9,0.1-1.3,0.3s-0.7,0.5-0.9,0.8c-0.2,0.4-0.4,0.9-0.5,1.5c-0.1,0.6-0.2,1.3-0.2,2.2v0.9
		c0,0.9,0.1,1.6,0.2,2.2c0.1,0.6,0.3,1.1,0.5,1.5c0.2,0.4,0.5,0.7,0.9,0.8s0.8,0.3,1.3,0.3c0.9,0,1.6-0.2,2.1-0.6s0.7-1.1,0.8-2
		H93.5z"/>
	<path fill="#FFFFFF" d="M105.4,97.9h-6.1v3.9h7.2v3H95.3V88.6h11.2v3h-7.3V95h6.1V97.9z"/>
</g>
</svg>
