<?xml version="1.0" encoding="utf-8"?>
<!-- Generator: Adobe Illustrator 19.1.0, SVG Export Plug-In . SVG Version: 6.00 Build 0)  -->
<!DOCTYPE svg PUBLIC "-//W3C//DTD SVG 1.1//EN" "http://www.w3.org/Graphics/SVG/1.1/DTD/svg11.dtd">
<svg version="1.1" id="Layer_1" xmlns="http://www.w3.org/2000/svg" xmlns:xlink="http://www.w3.org/1999/xlink" x="0px" y="0px"
	 viewBox="0 0 120 112" enable-background="new 0 0 120 112" xml:space="preserve">
<g>
	<polygon fill="#B0BEC5" points="73.6,84.2 45.5,84.2 49.4,76.4 51.9,71.6 68.1,71.6 70.6,76.4 	"/>
	<polygon fill="#9DAEB7" points="70.6,76.4 49.4,76.4 51.9,71.6 68.1,71.6 	"/>
	<path fill="#B0BEC5" d="M107.4,8.2v61.5c0,1.2-1,2.1-2.1,2.1H14.7c-1.2,0-2.1-1-2.1-2.1V8.2c0-1.2,1-2.1,2.1-2.1h90.6
		C106.5,6.1,107.4,7.1,107.4,8.2z"/>
	<path fill="#BCC8CE" d="M107.4,8.2v14.5C98.8,30.3,80.8,35.5,60,35.5c-20.8,0-38.8-5.2-47.4-12.8V8.2c0-1.2,1-2.1,2.1-2.1h90.6
		C106.5,6.1,107.4,7.1,107.4,8.2z"/>
	<rect x="16.2" y="10.6" fill="#616161" width="87.5" height="57.3"/>
	<rect x="16.2" y="39" fill="#5B5B5B" width="87.5" height="28.9"/>
	<rect x="21.2" y="14" fill="#4FC3F7" width="20.8" height="3.4"/>
	<rect x="21.2" y="20.7" fill="#4FC3F7" width="33" height="3.4"/>
	<rect x="31.6" y="34.2" fill="#FFC107" width="67" height="3.4"/>
	<rect x="21.2" y="54.4" fill="#4FC3F7" width="33" height="3.4"/>
	<rect x="31.6" y="27.5" fill="#FFC107" width="37.4" height="3.4"/>
	<rect x="71.1" y="27.5" fill="#EF5350" width="17.1" height="3.4"/>
	<rect x="31.6" y="61.2" fill="#FFC107" width="37.4" height="3.4"/>
	<rect x="71.1" y="61.2" fill="#EF5350" width="17.1" height="3.4"/>
	<rect x="50.7" y="40.9" fill="#FFC107" width="37.4" height="3.4"/>
	<rect x="31.6" y="40.9" fill="#EF5350" width="17.1" height="3.4"/>
	<rect x="50.7" y="47.7" fill="#FFC107" width="37.4" height="3.4"/>
	<rect x="31.6" y="47.7" fill="#EF5350" width="17.1" height="3.4"/>
	<polygon fill="#43BAF6" points="32.6,17.4 21.2,17.4 21.2,14 29.2,14 	"/>
	<polygon fill="#43BAF6" points="39.3,24.1 21.2,24.1 21.2,20.7 36,20.7 	"/>
	<polygon fill="#FFB806" points="31.6,27.5 42.7,27.5 46.1,30.8 31.6,30.8 	"/>
	<rect x="31.6" y="40.9" fill="#ED4744" width="17.1" height="3.4"/>
	<rect x="31.6" y="47.7" fill="#ED4744" width="17.1" height="3.4"/>
	<polygon fill="#FFB806" points="31.6,34.2 49.5,34.2 52.8,37.6 31.6,37.6 	"/>
	<rect x="21.2" y="54.4" fill="#43BAF6" width="33" height="3.4"/>
	<polygon fill="#FFB806" points="50.7,40.9 56.2,40.9 59.6,44.3 50.7,44.3 	"/>
	<polygon fill="#FFB806" points="50.7,47.7 62.9,47.7 66.3,51 50.7,51 	"/>
	<rect x="31.6" y="61.2" fill="#FFB806" width="37.4" height="3.4"/>
	<polygon fill="#ED4744" points="79.8,64.5 71.1,64.5 71.1,61.2 76.4,61.2 	"/>
	<path fill="#B0BEC5" d="M74.9,86.9H44.3c-1.5,0-2.7-1.2-2.7-2.7l0,0c0-1.5,1.2-2.7,2.7-2.7h30.6c1.5,0,2.7,1.2,2.7,2.7l0,0
		C77.6,85.7,76.3,86.9,74.9,86.9z"/>
</g>
<path fill="#4FC3F7" d="M114.4,110.3H5.6c-2.9,0-5.2-2.3-5.2-5.2V86c0-2.9,2.3-5.2,5.2-5.2h108.7c2.9,0,5.2,2.3,5.2,5.2v19.1
	C119.6,108,117.2,110.3,114.4,110.3z"/>
<path fill="#03A9F4" d="M114.4,112H5.6c-2.9,0-5.2-2.3-5.2-5.2V86.7c0-2.9,2.3-5.2,5.2-5.2h108.7c2.9,0,5.2,2.3,5.2,5.2v20.1
	C119.6,109.7,117.2,112,114.4,112z"/>
<g>
	<path fill="#FFFFFF" d="M17.3,97.9h-6.1v3.9h7.2v3H7.3V88.6h11.2v3h-7.3V95h6.1V97.9z"/>
	<path fill="#FFFFFF" d="M33.5,104.8h-3.9l-5.7-10.1v10.1H20V88.6h3.9l5.7,10.1V88.6h3.9V104.8z"/>
	<path fill="#FFFFFF" d="M49.2,102.8c-0.2,0.2-0.5,0.5-0.9,0.7s-0.8,0.5-1.4,0.7c-0.5,0.2-1.1,0.4-1.8,0.5c-0.7,0.1-1.5,0.2-2.4,0.2
		c-1.1,0-2.1-0.2-2.9-0.5c-0.9-0.3-1.6-0.9-2.2-1.5c-0.6-0.7-1.1-1.5-1.4-2.5c-0.3-1-0.5-2.1-0.5-3.3v-0.9c0-1.3,0.2-2.4,0.5-3.4
		c0.3-1,0.8-1.8,1.4-2.5c0.6-0.7,1.3-1.2,2.2-1.5c0.8-0.3,1.8-0.5,2.8-0.5c1.1,0,2.1,0.1,2.9,0.4s1.5,0.6,2,1.1
		c0.5,0.5,0.9,1.1,1.2,1.7s0.5,1.4,0.5,2.2h-3.8c-0.1-0.4-0.1-0.8-0.3-1.1c-0.1-0.3-0.3-0.6-0.5-0.8s-0.5-0.4-0.8-0.5
		s-0.7-0.2-1.2-0.2c-0.5,0-0.9,0.1-1.3,0.3c-0.4,0.2-0.7,0.5-1,0.9c-0.3,0.4-0.5,0.9-0.6,1.5c-0.1,0.6-0.2,1.3-0.2,2.1v0.9
		c0,1.6,0.3,2.8,0.8,3.6s1.4,1.2,2.6,1.2c0.3,0,0.6,0,0.8-0.1c0.2,0,0.5-0.1,0.6-0.2c0.2-0.1,0.3-0.1,0.5-0.2s0.2-0.2,0.3-0.2v-2.5
		h-2.7v-2.7h6.6V102.8z"/>
	<path fill="#FFFFFF" d="M55.6,104.8h-3.9V88.6h3.9V104.8z"/>
	<path fill="#FFFFFF" d="M71.8,104.8h-3.9l-5.7-10.1v10.1h-3.9V88.6h3.9l5.7,10.1V88.6h3.9V104.8z"/>
	<path fill="#FFFFFF" d="M84.3,97.9h-6.1v3.9h7.2v3H74.3V88.6h11.2v3h-7.3V95h6.1V97.9z"/>
	<path fill="#FFFFFF" d="M97,97.9h-6.1v3.9h7.2v3H87V88.6h11.2v3h-7.3V95H97V97.9z"/>
	<path fill="#FFFFFF" d="M105.7,99.1h-2.1v5.7h-3.9V88.6h6.4c0.9,0,1.8,0.1,2.5,0.3c0.8,0.2,1.4,0.5,1.9,0.9
		c0.5,0.4,0.9,0.9,1.2,1.5c0.3,0.6,0.4,1.3,0.4,2.1c0,0.6-0.1,1.2-0.2,1.7c-0.1,0.5-0.3,0.9-0.6,1.3c-0.2,0.4-0.5,0.7-0.9,1
		c-0.3,0.3-0.7,0.5-1.2,0.7l3.4,6.5v0.2h-4.2L105.7,99.1z M103.6,96.1h2.5c0.7,0,1.3-0.2,1.7-0.6c0.4-0.4,0.6-0.9,0.6-1.6
		c0-0.7-0.2-1.2-0.6-1.6c-0.4-0.4-0.9-0.6-1.7-0.6h-2.5V96.1z"/>
</g>
</svg>
