<?xml version="1.0" encoding="utf-8"?>
<!-- Generator: Adobe Illustrator 19.1.0, SVG Export Plug-In . SVG Version: 6.00 Build 0)  -->
<!DOCTYPE svg PUBLIC "-//W3C//DTD SVG 1.1//EN" "http://www.w3.org/Graphics/SVG/1.1/DTD/svg11.dtd">
<svg version="1.1" id="Layer_1" xmlns="http://www.w3.org/2000/svg" xmlns:xlink="http://www.w3.org/1999/xlink" x="0px" y="0px"
	 viewBox="0 0 120 112" enable-background="new 0 0 120 112" xml:space="preserve">
<g>
	<polygon fill="#616161" points="15.9,89.8 23,96.9 76.9,50 82.8,39.5 73.3,30 62.8,35.9 	"/>
	<path fill="#B0BEC5" d="M102.8,8.7L88.3,23.3c-0.9-0.4-1.9-0.2-2.6,0.5c-0.9,0.9-0.9,2.4,0,3.4c0.9,0.9,2.4,0.9,3.4,0
		c0.7-0.7,0.9-1.7,0.5-2.6L104.1,10l-5.7,20l-13.2,6.5l-8.9-8.9l6.5-13.2L102.8,8.7z"/>
	<path fill="#424242" d="M73.5,30.2l9,9c0.8,0.8,2,0.8,2.7,0v0c0.8-0.8,0.8-2,0-2.7l-9-9c-0.8-0.8-2-0.8-2.7,0v0
		C72.8,28.3,72.8,29.5,73.5,30.2z"/>
	<path fill="#9DAEB7" d="M104.1,10l-5.7,20l-13.2,6.5L80.8,32l4.9-4.9c0.9,0.9,2.4,0.9,3.4,0c0.7-0.7,0.9-1.7,0.5-2.6L104.1,10z"/>
	<polygon fill="#555555" points="82.8,39.5 76.9,50 23,96.9 19.4,93.4 78,34.7 82.6,39.3 	"/>
	
		<rect x="39.1" y="30.9" transform="matrix(0.7071 0.7071 -0.7071 0.7071 37.972 -18.2785)" fill="#607D8B" width="3.9" height="11.6"/>
	<path fill="#FFC107" d="M43.8,31.2l-8.2,8.2c0,0-6.5,1.1-11.7-4.5c-1.7-1.7-3-4.5-3.9-7.7c-2.1-7.4-2-16.8,0.2-18.9
		c4.7,4.7,9.3,7.2,13,9.1c3.3,1.6,5.9,2.7,7.4,4.2C45,26,43.8,31.2,43.8,31.2z"/>
	<path fill="#4FC3F7" d="M38.3,42.2C41.9,50,49.6,60.6,61,71.9c17.7,17.7,35.5,28.6,39.7,24.4c4.2-4.2-6.7-22-24.4-39.7
		C64.9,45.2,54.3,37.5,46.5,34L38.3,42.2z"/>
	<path fill="#37BBF6" d="M100.7,96.3c-4.2,4.2-22-6.7-39.7-24.4C49.6,60.6,41.9,50,38.3,42.2l4.1-4.1L100.7,96.3z"/>
	<path fill="#D81B60" d="M33.1,17.4c-0.5,1-0.4,2.2-1.1,3.1c-0.7,0.9-1,3.7-1.9,4.5c-0.8,0.8-2.9-0.2-3.9,0.5
		c-1,0.6-1.1,2.9-2.2,3.3c-1,0.4-3-1.7-4.1-1.5c-2.1-7.4-2-16.8,0.2-18.9C24.8,13,29.4,15.6,33.1,17.4z"/>
	<path fill="#D81B60" d="M36.8,10c0.7,0.1,1.2,0.7,1.2,1.3c0.1,0.7-0.4,1.3-0.9,1.7c-0.4,0.3-1,0.4-1.5,0.4c-0.5,0-1.1,0-1.6-0.1
		c-0.2-0.1-0.6-0.1-0.8-0.4c0.7-0.5,1.3-1.2,1.8-2c0.1-0.2,0.3-0.4,0.5-0.6C35.9,10,36.4,9.9,36.8,10z"/>
	<path fill="#D81B60" d="M29.7,3c0.7-0.9,2-1.1,3-0.6c1.1,0.5,1.6,1.7,1.6,2.9c0,0.9-0.4,1.7-0.8,2.5c-0.4,0.8-1,1.6-1.7,2.2
		c-0.3,0.3-0.7,0.7-1.2,0.8c-0.1-1.6-0.6-3-1.2-4.4c-0.2-0.4-0.3-0.8-0.4-1.3C29,4.4,29.2,3.6,29.7,3z"/>
	<path fill="#FDB713" d="M37.2,37.8L37.2,37.8l-1.6,1.6v0c0,0-6.5,1.1-11.7-4.5c-1.7-1.7-3-4.5-3.9-7.7c1.1-0.2,3,1.9,4.1,1.5
		c1.1-0.4,1.2-2.7,2.2-3.3c0.6-0.4,1.7-0.2,2.6-0.1c1.2,0.7,2.4,1.7,4.1,3.9C35.6,32.7,36.2,35.2,37.2,37.8z"/>
	<path fill="#C7185C" d="M28.8,25.3c-0.9,0-2-0.2-2.6,0.1c-1,0.6-1.1,2.9-2.2,3.3c-1.1,0.4-3-1.7-4.1-1.5c-1.9-6.8-2-15.2-0.3-18.2
		c0.6,3.6-0.8,6.7,2.5,11C25.1,24,26.8,24.1,28.8,25.3z"/>
</g>
<path fill="#F06292" d="M114.4,110.3H5.6c-2.9,0-5.2-2.3-5.2-5.2V86c0-2.9,2.3-5.2,5.2-5.2h108.7c2.9,0,5.2,2.3,5.2,5.2v19.1
	C119.6,108,117.2,110.3,114.4,110.3z"/>
<path fill="#D81B60" d="M114.4,112H5.6c-2.9,0-5.2-2.3-5.2-5.2V86.7c0-2.9,2.3-5.2,5.2-5.2h108.7c2.9,0,5.2,2.3,5.2,5.2v20.1
	C119.6,109.7,117.2,112,114.4,112z"/>
<g>
	<path fill="#FFFFFF" d="M7.1,104.8V88.6h5.2c1.1,0,2.1,0.2,3,0.6c0.9,0.4,1.7,0.9,2.4,1.6c0.7,0.7,1.2,1.5,1.5,2.5
		c0.4,1,0.6,2,0.6,3.1V97c0,1.1-0.2,2.2-0.6,3.1s-0.9,1.8-1.5,2.4c-0.7,0.7-1.4,1.2-2.4,1.6c-0.9,0.4-1.9,0.6-3,0.6H7.1z M11,91.6
		v10.2h1.4c1.1,0,2-0.4,2.6-1.2s0.9-2,0.9-3.5v-0.7c0-1.6-0.3-2.7-0.9-3.5s-1.5-1.2-2.6-1.2H11z"/>
	<path fill="#FFFFFF" d="M31.9,97.9h-6.1v3.9H33v3H21.8V88.6H33v3h-7.3V95h6.1V97.9z"/>
	<path fill="#FFFFFF" d="M42.9,100.5c0-0.3,0-0.5-0.1-0.7c-0.1-0.2-0.2-0.4-0.4-0.6c-0.2-0.2-0.5-0.4-0.9-0.5
		c-0.4-0.2-0.9-0.4-1.5-0.6c-0.7-0.2-1.4-0.5-2.1-0.8c-0.7-0.3-1.2-0.6-1.8-1.1s-0.9-0.9-1.2-1.4s-0.5-1.2-0.5-1.9
		c0-0.7,0.2-1.3,0.5-1.9c0.3-0.6,0.7-1,1.3-1.4s1.2-0.7,2-0.9s1.6-0.3,2.5-0.3c0.9,0,1.7,0.1,2.4,0.4s1.4,0.6,1.9,1
		c0.5,0.4,0.9,1,1.2,1.6s0.4,1.3,0.4,2.1h-3.9c0-0.3,0-0.6-0.1-0.8c-0.1-0.3-0.2-0.5-0.4-0.7c-0.2-0.2-0.4-0.3-0.7-0.4
		c-0.3-0.1-0.6-0.2-1-0.2c-0.4,0-0.7,0-1,0.1s-0.5,0.2-0.7,0.4c-0.2,0.2-0.3,0.3-0.4,0.5s-0.1,0.4-0.1,0.6c0,0.2,0.1,0.5,0.2,0.7
		c0.1,0.2,0.3,0.4,0.6,0.6s0.6,0.3,0.9,0.5c0.4,0.2,0.8,0.3,1.2,0.5c0.9,0.3,1.6,0.6,2.3,0.9c0.7,0.3,1.2,0.7,1.7,1.1
		c0.5,0.4,0.8,0.9,1.1,1.5c0.2,0.5,0.4,1.2,0.4,1.8c0,0.7-0.1,1.4-0.4,1.9c-0.3,0.6-0.7,1-1.2,1.4s-1.2,0.7-1.9,0.9
		c-0.7,0.2-1.6,0.3-2.5,0.3c-0.6,0-1.1,0-1.7-0.1c-0.5-0.1-1.1-0.2-1.6-0.4c-0.5-0.2-1-0.4-1.4-0.7c-0.4-0.3-0.8-0.6-1.1-1
		c-0.3-0.4-0.6-0.9-0.7-1.4c-0.2-0.5-0.3-1.1-0.3-1.7H38c0,0.5,0.1,0.9,0.2,1.2c0.1,0.3,0.3,0.6,0.6,0.8c0.2,0.2,0.5,0.3,0.9,0.4
		s0.8,0.1,1.2,0.1c0.4,0,0.7,0,0.9-0.1s0.5-0.2,0.6-0.3s0.3-0.3,0.4-0.5C42.9,100.9,42.9,100.7,42.9,100.5z"/>
	<path fill="#FFFFFF" d="M52.9,104.8h-3.9V88.6h3.9V104.8z"/>
	<path fill="#FFFFFF" d="M68.9,102.8c-0.2,0.2-0.5,0.5-0.9,0.7s-0.8,0.5-1.4,0.7c-0.5,0.2-1.1,0.4-1.8,0.5c-0.7,0.1-1.5,0.2-2.4,0.2
		c-1.1,0-2.1-0.2-2.9-0.5c-0.9-0.3-1.6-0.9-2.2-1.5c-0.6-0.7-1.1-1.5-1.4-2.5c-0.3-1-0.5-2.1-0.5-3.3v-0.9c0-1.3,0.2-2.4,0.5-3.4
		c0.3-1,0.8-1.8,1.4-2.5c0.6-0.7,1.3-1.2,2.2-1.5c0.8-0.3,1.8-0.5,2.8-0.5c1.1,0,2.1,0.1,2.9,0.4s1.5,0.6,2,1.1
		c0.5,0.5,0.9,1.1,1.2,1.7s0.5,1.4,0.5,2.2h-3.8c-0.1-0.4-0.1-0.8-0.3-1.1c-0.1-0.3-0.3-0.6-0.5-0.8s-0.5-0.4-0.8-0.5
		s-0.7-0.2-1.2-0.2c-0.5,0-0.9,0.1-1.3,0.3c-0.4,0.2-0.7,0.5-1,0.9c-0.3,0.4-0.5,0.9-0.6,1.5c-0.1,0.6-0.2,1.3-0.2,2.1v0.9
		c0,1.6,0.3,2.8,0.8,3.6s1.4,1.2,2.6,1.2c0.3,0,0.6,0,0.8-0.1c0.2,0,0.5-0.1,0.6-0.2c0.2-0.1,0.3-0.1,0.5-0.2s0.2-0.2,0.3-0.2v-2.5
		h-2.7v-2.7h6.6V102.8z"/>
	<path fill="#FFFFFF" d="M84.6,104.8h-3.9L75,94.7v10.1h-3.9V88.6H75l5.7,10.1V88.6h3.9V104.8z"/>
	<path fill="#FFFFFF" d="M97.1,97.9H91v3.9h7.2v3H87.1V88.6h11.2v3H91V95h6.1V97.9z"/>
	<path fill="#FFFFFF" d="M105.8,99.1h-2.1v5.7h-3.9V88.6h6.4c0.9,0,1.8,0.1,2.5,0.3c0.8,0.2,1.4,0.5,1.9,0.9
		c0.5,0.4,0.9,0.9,1.2,1.5c0.3,0.6,0.4,1.3,0.4,2.1c0,0.6-0.1,1.2-0.2,1.7c-0.1,0.5-0.3,0.9-0.6,1.3c-0.2,0.4-0.5,0.7-0.9,1
		c-0.3,0.3-0.7,0.5-1.2,0.7l3.4,6.5v0.2h-4.2L105.8,99.1z M103.7,96.1h2.5c0.7,0,1.3-0.2,1.7-0.6c0.4-0.4,0.6-0.9,0.6-1.6
		c0-0.7-0.2-1.2-0.6-1.6c-0.4-0.4-0.9-0.6-1.7-0.6h-2.5V96.1z"/>
</g>
</svg>
