<?xml version="1.0" encoding="utf-8"?>
<!-- Generator: Adobe Illustrator 19.1.0, SVG Export Plug-In . SVG Version: 6.00 Build 0)  -->
<!DOCTYPE svg PUBLIC "-//W3C//DTD SVG 1.1//EN" "http://www.w3.org/Graphics/SVG/1.1/DTD/svg11.dtd">
<svg version="1.1" id="Layer_1" xmlns="http://www.w3.org/2000/svg" xmlns:xlink="http://www.w3.org/1999/xlink" x="0px" y="0px"
	 viewBox="0 0 120 112" enable-background="new 0 0 120 112" xml:space="preserve">
<g>
	<polygon fill="#FFB300" points="111.6,78.6 50.6,70.3 57,23.3 118,31.6 102.2,53.4 	"/>
	
		<rect x="26.2" y="14.5" transform="matrix(0.9909 0.1347 -0.1347 0.9909 5.6542 -7.0571)" fill="#FFCA28" width="57.6" height="47.4"/>
	<polygon fill="#FF8F00" points="51.8,61.8 80.3,65.6 50.6,70.3 	"/>
	<path fill="#616161" d="M30.2,7.1L30,8.1l-0.4,2.7l-6.4,47L19,89.3c-0.2,1.3-1.3,2.3-2.6,2.3h0c-1.2,0-2.2-1.1-2-2.3L25.5,7.5v0
		l0.1-0.9v0l0-0.2c0,0,0,0,0,0c0.3-1.1,1.3-1.9,2.4-1.8l0.2,0h0l0.1,0C29.5,4.8,30.3,5.9,30.2,7.1z"/>
	<path fill="#757575" d="M28.2,4.6L28.2,4.6l-0.5,3.9l-11.3,83h0c-1.2,0-2.2-1.1-2-2.3L25.5,7.5v0l0.1-0.9v0c0-0.1,0-0.2,0-0.2
		c0.1-0.5,0.4-1,0.9-1.3C26.9,4.7,27.5,4.6,28.2,4.6z"/>
	<circle fill="#FFC107" cx="28.2" cy="4.6" r="3.9"/>
	<path fill="#FFB300" d="M32.1,5.2c0.1-1.1-0.2-2.1-0.8-2.9L25,7c0.6,0.8,1.5,1.4,2.6,1.5C29.8,8.8,31.8,7.3,32.1,5.2z"/>
</g>
<path fill="#7986CB" d="M114.4,110.3H5.6c-2.9,0-5.2-2.3-5.2-5.2V86c0-2.9,2.3-5.2,5.2-5.2h108.7c2.9,0,5.2,2.3,5.2,5.2v19.1
	C119.6,108,117.2,110.3,114.4,110.3z"/>
<path fill="#3F51B5" d="M114.4,112H5.6c-2.9,0-5.2-2.3-5.2-5.2V86.7c0-2.9,2.3-5.2,5.2-5.2h108.7c2.9,0,5.2,2.3,5.2,5.2v20.1
	C119.6,109.7,117.2,112,114.4,112z"/>
<g>
	<path fill="#FFFFFF" d="M8.6,90l3,9.4l3-9.4h4.3v13.5h-3.3v-3.2l0.3-6.5l-3.3,9.6h-2.2l-3.3-9.6l0.3,6.5v3.2H4.4V90H8.6z"/>
	<path fill="#FFFFFF" d="M28.9,101h-4.5l-0.8,2.5h-3.5l5-13.5h3.1l5,13.5h-3.5L28.9,101z M25.2,98.5h2.9l-1.5-4.7L25.2,98.5z"/>
	<path fill="#FFFFFF" d="M39.1,98.8h-1.8v4.8h-3.3V90h5.3c0.8,0,1.5,0.1,2.1,0.3c0.6,0.2,1.2,0.4,1.6,0.8c0.4,0.3,0.8,0.8,1,1.3
		c0.2,0.5,0.4,1.1,0.4,1.8c0,0.5-0.1,1-0.2,1.4c-0.1,0.4-0.3,0.8-0.5,1.1c-0.2,0.3-0.5,0.6-0.7,0.8s-0.6,0.4-1,0.6l2.8,5.4v0.1h-3.5
		L39.1,98.8z M37.4,96.2h2.1c0.6,0,1.1-0.2,1.4-0.5c0.3-0.3,0.5-0.8,0.5-1.4s-0.2-1-0.5-1.4s-0.8-0.5-1.4-0.5h-2.1V96.2z"/>
	<path fill="#FFFFFF" d="M57.4,99c0,0.7-0.2,1.4-0.5,1.9c-0.3,0.6-0.6,1.1-1.1,1.5c-0.5,0.4-1.1,0.7-1.7,1c-0.7,0.2-1.4,0.3-2.3,0.3
		c-0.9,0-1.7-0.2-2.4-0.5c-0.7-0.3-1.3-0.7-1.8-1.3c-0.5-0.6-0.9-1.3-1.1-2.1c-0.3-0.8-0.4-1.7-0.4-2.7v-0.7c0-1,0.1-1.9,0.4-2.7
		c0.3-0.8,0.7-1.5,1.2-2.1s1.1-1,1.8-1.3c0.7-0.3,1.5-0.5,2.3-0.5c0.9,0,1.7,0.1,2.3,0.4c0.7,0.2,1.3,0.6,1.7,1
		c0.5,0.4,0.8,0.9,1.1,1.5s0.4,1.2,0.5,1.9h-3.2c0-0.4-0.1-0.7-0.2-1c-0.1-0.3-0.2-0.5-0.4-0.7c-0.2-0.2-0.4-0.3-0.7-0.4
		s-0.7-0.1-1.1-0.1c-0.4,0-0.8,0.1-1,0.2S50.2,93,50,93.3c-0.2,0.3-0.3,0.7-0.4,1.2c-0.1,0.5-0.1,1.1-0.1,1.8v0.8
		c0,0.7,0,1.3,0.1,1.8s0.2,0.9,0.4,1.2c0.2,0.3,0.4,0.6,0.7,0.7c0.3,0.1,0.7,0.2,1.1,0.2c0.7,0,1.3-0.2,1.7-0.5
		c0.4-0.4,0.6-0.9,0.6-1.7H57.4z"/>
	<path fill="#FFFFFF" d="M70.4,97c0,1-0.1,2-0.4,2.8s-0.7,1.5-1.2,2.1s-1.1,1-1.9,1.3c-0.7,0.3-1.5,0.5-2.4,0.5
		c-0.9,0-1.7-0.2-2.4-0.5c-0.7-0.3-1.4-0.7-1.9-1.3c-0.5-0.6-0.9-1.3-1.2-2.1s-0.4-1.8-0.4-2.8v-0.5c0-1,0.1-2,0.4-2.8
		c0.3-0.8,0.7-1.5,1.2-2.1c0.5-0.6,1.1-1,1.9-1.3s1.5-0.5,2.4-0.5c0.9,0,1.7,0.2,2.4,0.5s1.3,0.8,1.9,1.3c0.5,0.6,0.9,1.3,1.2,2.1
		c0.3,0.8,0.4,1.8,0.4,2.8V97z M67.1,96.5c0-1.3-0.2-2.4-0.7-3.1c-0.4-0.7-1.1-1-1.9-1c-0.9,0-1.5,0.3-2,1c-0.4,0.7-0.6,1.7-0.6,3.1
		V97c0,1.3,0.2,2.3,0.7,3.1c0.4,0.7,1.1,1.1,2,1.1c0.8,0,1.5-0.4,1.9-1.1c0.4-0.7,0.7-1.7,0.7-3.1V96.5z"/>
	<path fill="#FFFFFF" d="M76.4,90l3,9.4l3-9.4h4.3v13.5h-3.3v-3.2l0.3-6.5l-3.3,9.6h-2.2L75,93.9l0.3,6.5v3.2h-3.3V90H76.4z"/>
	<path fill="#FFFFFF" d="M93,90l3,9.4l3-9.4h4.3v13.5h-3.3v-3.2l0.3-6.5l-3.3,9.6H95l-3.3-9.6l0.3,6.5v3.2h-3.3V90H93z"/>
	<path fill="#FFFFFF" d="M112.4,99.9c0-0.2,0-0.4-0.1-0.6c-0.1-0.2-0.2-0.3-0.3-0.5c-0.2-0.2-0.4-0.3-0.7-0.5
		c-0.3-0.1-0.7-0.3-1.2-0.5c-0.6-0.2-1.2-0.4-1.7-0.7s-1-0.5-1.5-0.9c-0.4-0.3-0.8-0.7-1-1.2c-0.3-0.5-0.4-1-0.4-1.6
		c0-0.6,0.1-1.1,0.4-1.6c0.3-0.5,0.6-0.9,1.1-1.2c0.5-0.3,1-0.6,1.6-0.8c0.6-0.2,1.3-0.3,2.1-0.3c0.7,0,1.4,0.1,2,0.3
		c0.6,0.2,1.2,0.5,1.6,0.8c0.4,0.4,0.8,0.8,1,1.3c0.3,0.5,0.4,1.1,0.4,1.7h-3.2c0-0.3,0-0.5-0.1-0.7c-0.1-0.2-0.2-0.4-0.4-0.5
		c-0.2-0.2-0.4-0.3-0.6-0.4c-0.2-0.1-0.5-0.1-0.8-0.1c-0.3,0-0.6,0-0.8,0.1s-0.4,0.2-0.6,0.3c-0.2,0.1-0.3,0.3-0.4,0.4
		c-0.1,0.2-0.1,0.3-0.1,0.5c0,0.2,0.1,0.4,0.2,0.6c0.1,0.2,0.3,0.3,0.5,0.5c0.2,0.1,0.5,0.3,0.8,0.4c0.3,0.1,0.7,0.3,1,0.4
		c0.7,0.2,1.4,0.5,1.9,0.8c0.6,0.3,1,0.6,1.4,1c0.4,0.4,0.7,0.8,0.9,1.2c0.2,0.5,0.3,1,0.3,1.5c0,0.6-0.1,1.1-0.4,1.6
		c-0.2,0.5-0.6,0.9-1,1.2c-0.4,0.3-1,0.6-1.6,0.7c-0.6,0.2-1.3,0.2-2.1,0.2c-0.5,0-0.9,0-1.4-0.1s-0.9-0.2-1.3-0.4
		c-0.4-0.2-0.8-0.4-1.2-0.6c-0.4-0.2-0.7-0.5-0.9-0.9c-0.3-0.3-0.5-0.7-0.6-1.2s-0.2-0.9-0.2-1.4h3.3c0,0.4,0.1,0.7,0.2,1
		c0.1,0.3,0.3,0.5,0.5,0.7s0.5,0.3,0.7,0.4c0.3,0.1,0.6,0.1,1,0.1c0.3,0,0.6,0,0.8-0.1s0.4-0.2,0.5-0.3c0.1-0.1,0.2-0.3,0.3-0.4
		C112.3,100.3,112.4,100.1,112.4,99.9z"/>
</g>
</svg>
