<?xml version="1.0" encoding="utf-8"?>
<!-- Generator: Adobe Illustrator 19.1.0, SVG Export Plug-In . SVG Version: 6.00 Build 0)  -->
<!DOCTYPE svg PUBLIC "-//W3C//DTD SVG 1.1//EN" "http://www.w3.org/Graphics/SVG/1.1/DTD/svg11.dtd">
<svg version="1.1" id="Layer_1" xmlns="http://www.w3.org/2000/svg" xmlns:xlink="http://www.w3.org/1999/xlink" x="0px" y="0px"
	 viewBox="0 0 120 112" enable-background="new 0 0 120 112" xml:space="preserve">
<g>
	<polygon fill="#FF5722" points="50.1,77 48.3,70.6 51.4,69.9 53.2,76.2 	"/>
	<path fill="#8BC34A" d="M53.2,89.7l-11.9,0.5c-2.6,0.1-5-1.4-6-3.8L27.9,69l19.7-2l3.7,14.6c0.2,0.6,0.6,1.1,1.2,1.3l0.8,0.3
		c0.5,0.1,0.8,0.6,0.8,1l0.2,4.3C54.4,89.1,53.9,89.7,53.2,89.7z"/>
	<path fill="#85BD47" d="M54,89.4c-0.2,0.2-0.5,0.3-0.7,0.3l-11.9,0.5c-2.6,0.1-5-1.4-6-3.8L27.9,69l0.5,0L54,89.4z"/>
	<path fill="#E0E0E0" d="M100.7,27l2.6,17.8l0,0.1c5.5-0.7,9.6-3.9,9.2-7.2l-0.7-5.7c-0.4-3.3-5.1-5.5-10.7-5L100.7,27z"/>
	<path fill="#E0E0E0" d="M17.2,38.9l1.5,17.9l0,0.1c-5.5,0.5-10.2-1.7-10.6-5l-0.7-5.7c-0.4-3.3,3.7-6.5,9.3-7.2L17.2,38.9z"/>
	<path fill="#E0E0E0" d="M98.1,3.6l7.9,69.4l-16.6-7.7c-10.8-5-22.4-7.3-33.6-6.8c-0.9,0-1.7,0.1-2.6,0.2l-3.3-29.3
		c1-0.1,2-0.3,2.9-0.5c10.9-2,21.6-6.8,30.9-14L98.1,3.6z"/>
	<path fill="#7CB342" d="M49.9,67l-23.5,2.2c-0.9,0.1-1.7-0.6-1.8-1.5l-0.3-2.9c-0.1-0.9,0.6-1.7,1.5-1.8l23.5-2.2
		c0.9-0.1,1.7,0.6,1.8,1.5l0.3,2.9C51.5,66.1,50.8,66.9,49.9,67z"/>
	<path fill="#FF5722" d="M106.6,73l-1.3,0.1c-0.9,0.1-1.8-0.6-1.9-1.5l-7.5-66c-0.1-0.9,0.6-1.8,1.5-1.9l1.3-0.1
		c0.9-0.1,1.8,0.6,1.9,1.5l7.5,66C108.2,72,107.5,72.9,106.6,73z"/>
	<path fill="#8BC34A" d="M53,29.9l2.7,28.5c0,0.1,0,0.1,0,0.2c0,1-0.7,1.8-1.7,1.9l-33.2,3.1c-1,0.1-1.9-0.6-2.1-1.6l0-0.1
		l-2.6-27.9L16,33.3c-0.1-1.1,0.7-2,1.7-2.1l33.2-3.1c0.7-0.1,1.4,0.3,1.8,0.8C52.9,29.2,53,29.5,53,29.9z"/>
	<path fill="#78AF40" d="M24.6,67.7l-0.1-1.5l26.8-2.5l0.1,1.5c0.1,0.9-0.6,1.7-1.5,1.8l-23.5,2.2C25.5,69.2,24.7,68.6,24.6,67.7z"
		/>
	<path fill="#D9D9D9" d="M112.1,33.8l0.4,3.8c0.3,3-2.9,5.8-7.5,6.9l-0.9-7.6L112.1,33.8z"/>
	<path fill="#D9D9D9" d="M103.5,71.9l-14.2-6.6c-10.8-5-22.4-7.3-33.6-6.8c0-0.1,0-0.1,0-0.2l-1-10.4c12.7,0.6,25.3-1.5,37.2-6.1
		l7.8-3.1l3.7,32.9C103.4,71.7,103.4,71.8,103.5,71.9z"/>
	<path fill="#D9D9D9" d="M17.3,47.4l0.9,9.5c-5.3,0.4-9.8-1.8-10.1-5l-0.3-2.7l6-1.2C15,47.8,16.2,47.6,17.3,47.4z"/>
	<path fill="#F5521E" d="M105.9,51.7l2.2,19.3c0.1,0.9-0.6,1.8-1.5,1.9l-1.3,0.1c-0.8,0.1-1.6-0.4-1.8-1.2c0-0.1-0.1-0.2-0.1-0.3
		l-2.1-18.1l2.3-0.9l0.3-0.1L105.9,51.7z"/>
	<path fill="#85BD47" d="M54.7,47.9l1,10.4c0,0.1,0,0.1,0,0.2c0,1-0.8,1.8-1.7,1.9l-33.2,3.1c-1,0.1-1.9-0.6-2.1-1.6l0-0.1l-0.5-4.9
		l-0.9-9.5c0.2,0,0.4-0.1,0.6-0.1c6.8-1,13.7-1.2,20.5-0.7l13.3,1.1C52.7,47.8,53.7,47.9,54.7,47.9z"/>
</g>
<path fill="#FF8A65" d="M114.4,110.3H5.6c-2.9,0-5.2-2.3-5.2-5.2V86c0-2.9,2.3-5.2,5.2-5.2h108.7c2.9,0,5.2,2.3,5.2,5.2v19.1
	C119.6,108,117.2,110.3,114.4,110.3z"/>
<path fill="#FF5722" d="M114.4,112H5.6c-2.9,0-5.2-2.3-5.2-5.2V86.7c0-2.9,2.3-5.2,5.2-5.2h108.7c2.9,0,5.2,2.3,5.2,5.2v20.1
	C119.6,109.7,117.2,112,114.4,112z"/>
<g>
	<path fill="#FFFFFF" d="M15,90l3,9.4l3-9.4h4.3v13.5H22v-3.2l0.3-6.5l-3.3,9.6h-2.2l-3.3-9.6l0.3,6.5v3.2h-3.3V90H15z"/>
	<path fill="#FFFFFF" d="M35.2,101h-4.5l-0.8,2.5h-3.5l5-13.5h3.1l5,13.5H36L35.2,101z M31.5,98.5h2.9l-1.5-4.7L31.5,98.5z"/>
	<path fill="#FFFFFF" d="M45.5,98.8h-1.8v4.8h-3.3V90h5.3c0.8,0,1.5,0.1,2.1,0.3c0.6,0.2,1.2,0.4,1.6,0.8c0.4,0.3,0.8,0.8,1,1.3
		c0.2,0.5,0.4,1.1,0.4,1.8c0,0.5-0.1,1-0.2,1.4c-0.1,0.4-0.3,0.8-0.5,1.1c-0.2,0.3-0.5,0.6-0.7,0.8s-0.6,0.4-1,0.6l2.8,5.4v0.1h-3.5
		L45.5,98.8z M43.7,96.2h2.1c0.6,0,1.1-0.2,1.4-0.5c0.3-0.3,0.5-0.8,0.5-1.4s-0.2-1-0.5-1.4s-0.8-0.5-1.4-0.5h-2.1V96.2z"/>
	<path fill="#FFFFFF" d="M57.4,98.5l-1.3,1.5v3.6h-3.3V90h3.3v6l1.1-1.7l2.9-4.2h4l-4.6,6l4.6,7.5h-3.9L57.4,98.5z"/>
	<path fill="#FFFFFF" d="M73.4,97.8h-5.1v3.2h6v2.5H65V90h9.3v2.5h-6.1v2.8h5.1V97.8z"/>
	<path fill="#FFFFFF" d="M86.4,92.5h-4.1v11h-3.3v-11h-4V90h11.3V92.5z"/>
	<path fill="#FFFFFF" d="M96.2,97.8H91v3.2h6v2.5h-9.3V90h9.3v2.5H91v2.8h5.1V97.8z"/>
	<path fill="#FFFFFF" d="M103.4,98.8h-1.8v4.8h-3.3V90h5.3c0.8,0,1.5,0.1,2.1,0.3c0.6,0.2,1.2,0.4,1.6,0.8c0.4,0.3,0.8,0.8,1,1.3
		s0.4,1.1,0.4,1.8c0,0.5-0.1,1-0.2,1.4c-0.1,0.4-0.3,0.8-0.5,1.1c-0.2,0.3-0.5,0.6-0.7,0.8c-0.3,0.2-0.6,0.4-1,0.6l2.8,5.4v0.1h-3.5
		L103.4,98.8z M101.7,96.2h2.1c0.6,0,1.1-0.2,1.4-0.5c0.3-0.3,0.5-0.8,0.5-1.4s-0.2-1-0.5-1.4s-0.8-0.5-1.4-0.5h-2.1V96.2z"/>
</g>
</svg>
