<?xml version="1.0" encoding="utf-8"?>
<!-- Generator: Adobe Illustrator 19.1.0, SVG Export Plug-In . SVG Version: 6.00 Build 0)  -->
<!DOCTYPE svg PUBLIC "-//W3C//DTD SVG 1.1//EN" "http://www.w3.org/Graphics/SVG/1.1/DTD/svg11.dtd">
<svg version="1.1" id="Layer_1" xmlns="http://www.w3.org/2000/svg" xmlns:xlink="http://www.w3.org/1999/xlink" x="0px" y="0px"
	 viewBox="0 0 120 112" enable-background="new 0 0 120 112" xml:space="preserve">
<g>
	<path fill="#8D6E63" d="M105.7,55.1v10.8c0,2.2-1.8,4-4,4H19c-2.2,0-4-1.8-4-4V55.1c0-2.2,1.8-4,4-4h82.6
		C103.9,51.1,105.7,52.9,105.7,55.1z"/>
	<path fill="#917369" d="M105.7,60.5v5.4c0,2.2-1.8,4-4,4H19c-2.2,0-4-1.8-4-4v-5.4H105.7z"/>
	<rect x="59.2" y="51" fill="#6D5249" width="2.2" height="5.9"/>
	<rect x="66.4" y="51" fill="#6D5249" width="2.2" height="5.9"/>
	<rect x="73.5" y="51" fill="#6D5249" width="2.2" height="5.9"/>
	<rect x="80.6" y="51" fill="#6D5249" width="2.2" height="5.9"/>
	<rect x="87.7" y="51" fill="#6D5249" width="2.2" height="5.9"/>
	<rect x="94.9" y="51" fill="#6D5249" width="2.2" height="5.9"/>
	<rect x="52.1" y="51" fill="#6D5249" width="2.2" height="5.9"/>
	<rect x="45" y="51" fill="#6D5249" width="2.2" height="5.9"/>
	<rect x="37.9" y="51" fill="#6D5249" width="2.2" height="5.9"/>
	<rect x="30.7" y="51" fill="#6D5249" width="2.2" height="5.9"/>
	<rect x="23.6" y="51" fill="#6D5249" width="2.2" height="5.9"/>
	<path fill="#E0E0E0" d="M62.3,11.8v9.5c0,1.4-1.1,2.5-2.5,2.5h0c-1.4,0-2.5-1.1-2.5-2.5v-9.5c0-1.4,1.1-2.5,2.5-2.5h0
		C61.2,9.3,62.3,10.4,62.3,11.8z"/>
	<path fill="#D2D2D2" d="M62.3,15.5l0,5.9c0,1.4-1.1,2.5-2.5,2.5v-7.2l1.6-0.5C61.7,16.1,62,15.5,62.3,15.5z"/>
	<polygon fill="#E0E0E0" points="36.3,90.8 35.3,73.9 54,32.6 61.1,35.8 	"/>
	<polygon fill="#D2D2D2" points="57.7,34.3 51.2,48.5 47.5,46.8 53.9,32.6 	"/>
	<polygon fill="#BDBDBD" points="59.8,38.8 54.7,50.1 54.7,50.1 	"/>
	<polygon fill="#E0E0E0" points="83.3,90.8 84.3,73.9 65.7,32.6 58.5,35.8 	"/>
	<polygon fill="#D2D2D2" points="72.1,46.8 68.4,48.5 61.9,34.3 65.7,32.6 	"/>
	<polygon fill="#CECECE" points="68.4,48.5 64.9,50.1 59.8,38.8 59.8,35.2 61.9,34.3 	"/>
	<polygon fill="#E0E0E0" points="80.7,75.9 76.6,75.9 66,52.5 64.9,50.1 68.4,48.5 69.5,51 	"/>
	<polygon fill="#CECECE" points="59.8,35.2 59.8,38.8 54.7,50.1 51.2,48.5 57.7,34.3 	"/>
	<polygon fill="#D9D9D9" points="54.7,50.1 53.6,52.5 43,75.9 38.9,75.9 50.2,51 51.2,48.5 	"/>
	<polygon fill="#BDBDBD" points="36.3,90.8 35.8,82.7 35.8,82.7 35.8,82.7 	"/>
	<circle fill="#E0E0E0" cx="59.8" cy="33.3" r="13.6"/>
	<path fill="#E8E8E8" d="M73.4,33.3H46.2c0-7.5,6.1-13.6,13.6-13.6C67.3,19.8,73.4,25.8,73.4,33.3z"/>
	<circle fill="#FFC107" cx="59.8" cy="33.3" r="7.4"/>
	<path fill="#FFB706" d="M67.2,33.3c0,2-0.8,3.9-2.2,5.3l-5.2-5.2l5.2-5.3C66.4,29.4,67.2,31.3,67.2,33.3z"/>
	<path fill="#FFAF05" d="M65.1,38.6c-1.4,1.3-3.2,2.2-5.3,2.2c-2.1,0-3.9-0.8-5.2-2.2l5.3-5.2L65.1,38.6z"/>
	<path fill="#FFB706" d="M59.8,33.4l-5.3,5.2c-1.4-1.3-2.2-3.2-2.2-5.3s0.8-3.9,2.2-5.2L59.8,33.4z"/>
	<polygon fill="#B5B5B5" points="38.9,75.9 35.8,82.7 35.4,75.9 	"/>
	<polygon fill="#B1B1B1" points="43,75.9 39.9,82.7 36.3,90.8 35.8,82.7 35.8,82.7 38.9,75.9 	"/>
	<polygon fill="#757575" points="43,75.9 40,82.7 36.3,90.8 39.9,82.7 43,75.9 	"/>
	<polygon fill="#B1B1B1" points="83.8,82.7 83.3,90.8 79.7,82.7 76.6,75.9 80.7,75.9 	"/>
	<polygon fill="#B5B5B5" points="84.2,75.9 83.8,82.7 80.7,75.9 	"/>
	<path fill="#4CAF50" d="M65,5v6.7c0,2.7-2.2,4.9-4.9,4.9h-0.6c-2.7,0-4.9-2.2-4.9-4.9V5c0-2.7,2.2-4.9,4.9-4.9h0.6
		C62.8,0,65,2.3,65,5z"/>
	<path fill="#48A84C" d="M65,5v6.7c0,2.7-2.2,4.9-4.9,4.9h-0.3V0h0.3C62.8,0,65,2.3,65,5z"/>
</g>
<path fill="#81C784" d="M114.4,110.3H5.6c-2.9,0-5.2-2.3-5.2-5.2V86c0-2.9,2.3-5.2,5.2-5.2h108.7c2.9,0,5.2,2.3,5.2,5.2v19.1
	C119.6,108,117.2,110.3,114.4,110.3z"/>
<path fill="#4CAF50" d="M114.4,112H5.6c-2.9,0-5.2-2.3-5.2-5.2V86.7c0-2.9,2.3-5.2,5.2-5.2h108.7c2.9,0,5.2,2.3,5.2,5.2v20.1
	C119.6,109.7,117.2,112,114.4,112z"/>
<g>
	<path fill="#FFFFFF" d="M12.7,99.3v5.5H8.8V88.6h6.5c1,0,1.8,0.1,2.6,0.4c0.8,0.3,1.4,0.7,2,1.1s1,1.1,1.2,1.7
		c0.3,0.7,0.4,1.4,0.4,2.2c0,0.8-0.1,1.5-0.4,2.1c-0.3,0.6-0.7,1.2-1.2,1.6s-1.2,0.8-2,1.1c-0.8,0.2-1.7,0.4-2.6,0.4H12.7z
		 M12.7,96.3h2.6c0.4,0,0.8-0.1,1-0.2c0.3-0.1,0.5-0.3,0.7-0.5c0.2-0.2,0.3-0.4,0.4-0.7c0.1-0.3,0.1-0.6,0.1-0.9
		c0-0.3,0-0.6-0.1-0.9s-0.2-0.6-0.4-0.8c-0.2-0.2-0.4-0.4-0.7-0.5c-0.3-0.1-0.6-0.2-1-0.2h-2.6V96.3z"/>
	<path fill="#FFFFFF" d="M29.6,99.1h-2.1v5.7h-3.9V88.6h6.4c0.9,0,1.8,0.1,2.5,0.3c0.8,0.2,1.4,0.5,1.9,0.9c0.5,0.4,0.9,0.9,1.2,1.5
		c0.3,0.6,0.4,1.3,0.4,2.1c0,0.6-0.1,1.2-0.2,1.7c-0.1,0.5-0.3,0.9-0.6,1.3c-0.2,0.4-0.5,0.7-0.9,1c-0.3,0.3-0.7,0.5-1.2,0.7
		l3.4,6.5v0.2h-4.2L29.6,99.1z M27.5,96.1h2.5c0.7,0,1.3-0.2,1.7-0.6c0.4-0.4,0.6-0.9,0.6-1.6c0-0.7-0.2-1.2-0.6-1.6
		c-0.4-0.4-0.9-0.6-1.7-0.6h-2.5V96.1z"/>
	<path fill="#FFFFFF" d="M52.1,97c0,1.2-0.2,2.3-0.5,3.3s-0.8,1.8-1.5,2.5c-0.6,0.7-1.4,1.2-2.2,1.6c-0.9,0.4-1.8,0.5-2.8,0.5
		c-1,0-2-0.2-2.9-0.5c-0.9-0.4-1.6-0.9-2.2-1.6c-0.6-0.7-1.1-1.5-1.5-2.5c-0.3-1-0.5-2.1-0.5-3.3v-0.7c0-1.2,0.2-2.3,0.5-3.3
		c0.3-1,0.8-1.8,1.5-2.5c0.6-0.7,1.4-1.2,2.2-1.6s1.8-0.6,2.9-0.6c1,0,2,0.2,2.8,0.6s1.6,0.9,2.2,1.6c0.6,0.7,1.1,1.5,1.5,2.5
		s0.5,2.1,0.5,3.3V97z M48.1,96.4c0-1.6-0.3-2.8-0.8-3.7c-0.5-0.8-1.3-1.2-2.3-1.2c-1,0-1.8,0.4-2.3,1.2c-0.5,0.8-0.8,2.1-0.8,3.7
		V97c0,1.6,0.3,2.8,0.8,3.7c0.5,0.9,1.3,1.3,2.3,1.3c1,0,1.8-0.4,2.3-1.3c0.5-0.8,0.8-2.1,0.8-3.7V96.4z"/>
	<path fill="#FFFFFF" d="M54.1,104.8V88.6h5.2c1.1,0,2.1,0.2,3,0.6c0.9,0.4,1.7,0.9,2.4,1.6s1.2,1.5,1.5,2.5c0.4,1,0.6,2,0.6,3.1V97
		c0,1.1-0.2,2.2-0.6,3.1s-0.9,1.8-1.5,2.4c-0.7,0.7-1.4,1.2-2.4,1.6c-0.9,0.4-1.9,0.6-3,0.6H54.1z M58,91.6v10.2h1.4
		c1.1,0,2-0.4,2.6-1.2s0.9-2,0.9-3.5v-0.7c0-1.6-0.3-2.7-0.9-3.5s-1.5-1.2-2.6-1.2H58z"/>
	<path fill="#FFFFFF" d="M81.5,88.6v10.6c0,0.9-0.2,1.8-0.5,2.5s-0.7,1.3-1.3,1.8c-0.6,0.5-1.2,0.9-2,1.1c-0.8,0.3-1.6,0.4-2.6,0.4
		c-0.9,0-1.8-0.1-2.6-0.4c-0.8-0.3-1.5-0.6-2-1.1c-0.6-0.5-1-1.1-1.3-1.8c-0.3-0.7-0.5-1.6-0.5-2.5V88.6h3.9v10.6
		c0,1,0.2,1.7,0.6,2.2c0.4,0.4,1,0.7,1.8,0.7c0.8,0,1.4-0.2,1.8-0.7c0.4-0.4,0.6-1.2,0.6-2.2V88.6H81.5z"/>
	<path fill="#FFFFFF" d="M97,99.3c0,0.8-0.2,1.6-0.5,2.3c-0.3,0.7-0.8,1.3-1.4,1.8c-0.6,0.5-1.3,0.9-2.1,1.2s-1.7,0.4-2.7,0.4
		c-1.1,0-2-0.2-2.9-0.5c-0.8-0.4-1.6-0.9-2.2-1.6c-0.6-0.7-1-1.5-1.3-2.5c-0.3-1-0.5-2.1-0.5-3.3v-0.9c0-1.2,0.2-2.3,0.5-3.3
		c0.3-1,0.8-1.8,1.4-2.5c0.6-0.7,1.3-1.2,2.1-1.6c0.8-0.4,1.8-0.5,2.8-0.5c1.1,0,2,0.1,2.8,0.4s1.5,0.7,2.1,1.2
		c0.6,0.5,1,1.1,1.3,1.8s0.5,1.5,0.6,2.3h-3.9c0-0.5-0.1-0.9-0.2-1.2c-0.1-0.3-0.3-0.6-0.5-0.9s-0.5-0.4-0.9-0.5
		c-0.4-0.1-0.8-0.2-1.3-0.2c-0.5,0-0.9,0.1-1.3,0.3s-0.7,0.5-0.9,0.8c-0.2,0.4-0.4,0.9-0.5,1.5c-0.1,0.6-0.2,1.3-0.2,2.2v0.9
		c0,0.9,0.1,1.6,0.2,2.2c0.1,0.6,0.3,1.1,0.5,1.5s0.5,0.7,0.9,0.8c0.4,0.2,0.8,0.3,1.3,0.3c0.9,0,1.6-0.2,2.1-0.6s0.7-1.1,0.8-2H97z
		"/>
	<path fill="#FFFFFF" d="M111.2,91.6h-4.9v13.2h-3.9V91.6h-4.8v-3h13.5V91.6z"/>
</g>
</svg>
