<?xml version="1.0" encoding="UTF-8" standalone="no"?>
<svg width="36px" height="36px" viewBox="0 0 36 36" version="1.1" xmlns="http://www.w3.org/2000/svg" xmlns:xlink="http://www.w3.org/1999/xlink" xmlns:sketch="http://www.bohemiancoding.com/sketch/ns">
    <!-- Generator: Sketch 3.5.2 (25235) - http://www.bohemiancoding.com/sketch -->
    <title>Artboard</title>
    <desc>Created with Sketch.</desc>
    <defs></defs>
    <g id="Page-1" stroke="none" stroke-width="1" fill="none" fill-rule="evenodd" sketch:type="MSPage">
        <g id="Artboard" sketch:type="MSArtboardGroup" fill="#FFFFFF">
            <g id="Fill-174-+-Fill-175" sketch:type="MSLayerGroup">
                <path d="M27,36 L9,36 L9,32.4 L27,32.4 L27,36 Z" id="Fill-174" sketch:type="MSShapeGroup"></path>
                <path d="M32.4,9.936 L28.7892,12.825 C28.791,12.7494 28.8,12.6756 28.8,12.6 L28.8,5.4 L32.4,5.4 L32.4,9.936 Z M3.6,9.936 L3.6,5.4 L7.2,5.4 L7.2,12.6 C7.2,12.6756 7.209,12.7494 7.2108,12.825 L3.6,9.936 Z M34.2,1.8 L28.2996,1.8 C27.675,0.7308 26.5266,0 25.2,0 L10.8,0 C9.4734,0 8.325,0.7308 7.7004,1.8 L1.8,1.8 C0.8064,1.8 0,2.6082 0,3.6 L0,10.8 C0,11.3472 0.2484,11.8656 0.675,12.2076 L9.5472,19.3032 C11.1708,21.348 13.518,22.7862 16.2,23.238 L16.2,25.2 L12.6,25.2 C11.6064,25.2 10.8,26.0082 10.8,27 L10.8,30.6 L25.2,30.6 L25.2,27 C25.2,26.0082 24.3936,25.2 23.4,25.2 L19.8,25.2 L19.8,23.238 C22.482,22.7862 24.8292,21.348 26.4528,19.3032 L35.325,12.2076 C35.7516,11.8656 36,11.3472 36,10.8 L36,3.6 C36,2.6082 35.1936,1.8 34.2,1.8 L34.2,1.8 Z" id="Fill-175" sketch:type="MSShapeGroup"></path>
            </g>
        </g>
    </g>
</svg>