<!--Scalable Vector Graphic-->
<svg xmlns="http://www.w3.org/2000/svg" viewBox="181.2 273 17 16" enable-background="new 181.2 273 17 16" width="24px" height="24px">
	<path d="M-306.3 51.2l-113-113c-8.6-8.6-24-8.6-34.3 0l-506.9 506.9-212.4-212.4c-8.6-8.6-24-8.6-34.3 0l-113 113c-8.6 8.6-8.6 24 0 34.3l231.2 231.2 113 113c8.6 8.6 24 8.6 34.3 0l113-113 524-524c7-10.3 7-25.7-1.6-36z"/>
	<path fill="#49c6ad" d="M197.6 277.2l-1.6-1.6c-.1-.1-.3-.1-.5 0l-7.4 7.4-3.1-3.1c-.1-.1-.3-.1-.5 0l-1.6 1.6c-.1.1-.1.3 0 .5l3.3 3.3 1.6 1.6c.1.1.3.1.5 0l1.6-1.6 7.6-7.6c.3-.1.3-.3.1-.5z"/>
	<path d="M1187.1 143.7l-56.5-56.5c-5.1-5.1-12-5.1-17.1 0l-253.5 253.5-106.2-106.2c-5.1-5.1-12-5.1-17.1 0l-56.5 56.5c-5.1 5.1-5.1 12 0 17.1l114.7 114.7 56.5 56.5c5.1 5.1 12 5.1 17.1 0l56.5-56.5 262-262c5.2-3.4 5.2-12 .1-17.1zM1634.1 169.4l-37.7-37.7c-3.4-3.4-8.6-3.4-12 0l-169.5 169.5-70.2-71.9c-3.4-3.4-8.6-3.4-12 0l-37.7 37.7c-3.4 3.4-3.4 8.6 0 12l77.1 77.1 37.7 37.7c3.4 3.4 8.6 3.4 12 0l37.7-37.7 174.7-176.4c1.6-1.7 1.6-6.9-.1-10.3z"/>
</svg>
