<?xml version="1.0" encoding="UTF-8" standalone="no"?>
<svg width="760px" height="187px" viewBox="0 0 760 187" version="1.1" xmlns="http://www.w3.org/2000/svg" xmlns:xlink="http://www.w3.org/1999/xlink" xmlns:sketch="http://www.bohemiancoding.com/sketch/ns">
    <!-- Generator: Sketch 3.5.1 (25234) - http://www.bohemiancoding.com/sketch -->
    <title>Header Logo</title>
    <desc>Created with Sketch.</desc>
    <defs></defs>
    <g id="Page-1" stroke="none" stroke-width="1" fill="none" fill-rule="evenodd" sketch:type="MSPage">
        <g id="Header-Logo" sketch:type="MSArtboardGroup" fill="#4AC7AE">
            <g sketch:type="MSLayerGroup">
                <path d="M122.35,71.8698 L112.94,81.2998 L96.68,65.0398 L111.76,49.9498 C111.84,49.9998 111.92,50.0598 111.99,50.1098 C112.29,50.3198 112.59,50.5398 112.88,50.7598 C112.93,50.8098 112.99,50.8498 113.04,50.8898 C113.41,51.1698 113.77,51.4698 114.11,51.7798 C114.39,52.0198 114.67,52.2798 114.94,52.5498 C115.03,52.6198 115.12,52.7098 115.2,52.7998 C115.28,52.8698 115.36,52.9498 115.42,53.0298 C115.66,53.2598 115.88,53.4998 116.1,53.7398 C116.5,54.1798 116.88,54.6298 117.24,55.0998 C117.46,55.3698 117.67,55.6598 117.87,55.9498 C117.88,55.9498 117.88,55.9598 117.89,55.9698 C117.98,56.0998 118.08,56.2398 118.17,56.3798 C118.34,56.6198 118.49,56.8598 118.65,57.1098 C118.76,57.2798 118.86,57.4498 118.96,57.6198 C119.12,57.8898 119.27,58.1598 119.42,58.4298 C119.61,58.7798 119.79,59.1298 119.96,59.4898 C120.08,59.7398 120.2,59.9898 120.31,60.2398 C120.75,61.2598 121.13,62.2998 121.44,63.3798 C121.51,63.6398 121.58,63.8998 121.64,64.1598 C121.75,64.6198 121.86,65.0898 121.94,65.5598 C121.99,65.7998 122.03,66.0398 122.06,66.2798 C122.1,66.4898 122.12,66.6898 122.15,66.8998 C122.18,67.1098 122.2,67.3098 122.22,67.5198 C122.24,67.7298 122.26,67.9398 122.28,68.1498 C122.29,68.2698 122.3,68.3898 122.3,68.5098 C122.32,68.7598 122.33,69.0098 122.34,69.2698 C122.35,69.5198 122.35,69.7798 122.35,70.0298 L122.35,71.8698 Z M113.17,39.3798 C111.32,38.4598 108.92,38.8398 107.46,40.3098 L101.72,46.0398 L89.7,58.0698 L86.21,61.5498 C84.29,63.4698 84.29,66.5998 86.21,68.5198 L109.46,91.7698 C110.26,92.5598 111.29,93.0598 112.4,93.1798 C112.58,93.1998 112.77,93.2098 112.95,93.2098 C114.26,93.2098 115.52,92.6898 116.44,91.7698 L122.02,86.1698 L130.78,77.3998 C131.7,76.4698 132.22,75.2198 132.22,73.9098 L132.22,70.0298 C132.22,56.9598 124.92,45.2098 113.17,39.3798 L113.17,39.3798 Z" id="Fill-1" sketch:type="MSShapeGroup"></path>
                <path d="M19.99,81.3098 L10.56,71.8698 L10.56,70.0298 C10.56,69.7398 10.57,69.4498 10.58,69.1598 C10.59,68.8098 10.61,68.4698 10.64,68.1198 C10.67,67.6298 10.72,67.1498 10.79,66.6698 C10.81,66.5298 10.83,66.3998 10.85,66.2698 C10.88,66.0498 10.92,65.8198 10.96,65.5998 C11.1,64.8498 11.27,64.0998 11.48,63.3698 C11.54,63.1298 11.61,62.8998 11.69,62.6698 C11.76,62.4298 11.84,62.1998 11.92,61.9698 C12,61.7398 12.08,61.5098 12.17,61.2798 C12.26,61.0598 12.34,60.8298 12.44,60.6098 C12.53,60.3898 12.63,60.1598 12.74,59.9398 C12.83,59.7198 12.94,59.4998 13.05,59.2798 C13.15,59.0598 13.27,58.8398 13.38,58.6198 C13.61,58.1998 13.84,57.7898 14.09,57.3898 C14.12,57.3198 14.17,57.2498 14.21,57.1798 C14.43,56.8298 14.66,56.4798 14.9,56.1398 C15.17,55.7398 15.46,55.3598 15.77,54.9798 C15.77,54.9698 15.77,54.9598 15.78,54.9598 C16.38,54.1998 17.03,53.4698 17.73,52.7798 C18.08,52.4398 18.43,52.1098 18.8,51.7898 C18.8,51.7898 18.81,51.7698 18.82,51.7698 C19.18,51.4598 19.54,51.1498 19.92,50.8698 C19.96,50.8198 20.01,50.7898 20.06,50.7598 C20.41,50.4798 20.78,50.2198 21.16,49.9598 L36.26,65.0398 L19.99,81.3098 Z M46.73,61.5398 L43.24,58.0598 L31.2,46.0398 L25.45,40.2998 C23.96,38.8098 21.68,38.4398 19.79,39.3698 C8.01,45.1798 0.69,56.9298 0.69,70.0298 L0.69,73.9098 C0.69,75.2198 1.21,76.4798 2.14,77.3998 L16.51,91.7698 C17.47,92.7298 18.73,93.2098 19.99,93.2098 C20.17,93.2098 20.34,93.1998 20.52,93.1798 C21.6,93.0698 22.65,92.5998 23.48,91.7698 L46.73,68.5198 C47.66,67.5998 48.17,66.3398 48.17,65.0298 C48.17,63.7198 47.65,62.4698 46.73,61.5398 L46.73,61.5398 Z" id="Fill-3" sketch:type="MSShapeGroup"></path>
                <path d="M66.465,81.295 L50.205,65.035 L66.465,48.775 L82.725,65.035 L66.465,81.295 Z M93.195,61.545 L69.955,38.305 C68.025,36.385 64.905,36.385 62.985,38.305 L61.155,40.135 L55.535,45.755 L43.245,58.045 L39.745,61.545 C37.825,63.465 37.825,66.595 39.745,68.515 L43.235,72.005 L54.565,83.335 L62.985,91.755 C63.945,92.715 65.205,93.195 66.465,93.195 C67.735,93.195 68.995,92.715 69.955,91.755 L78.375,83.335 L89.715,72.005 L93.195,68.515 C95.115,66.595 95.115,63.465 93.195,61.545 L93.195,61.545 Z" id="Fill-5" sketch:type="MSShapeGroup"></path>
                <path d="M121.27,115.02 L121.18,117.12 C120.62,119.23 118.7,120.78 116.41,120.78 L43.1,120.78 C40.38,120.78 38.17,118.57 38.17,115.85 C38.17,113.12 40.38,110.92 43.1,110.92 L116.41,110.92 C118.86,110.92 120.89,112.69 121.27,115.02" id="Fill-7" sketch:type="MSShapeGroup"></path>
                <path d="M89.9556,146.6312 L17.7756,146.6312 C15.0506,146.6312 12.8436,144.4222 12.8436,141.6992 C12.8436,138.9762 15.0506,136.7672 17.7756,136.7672 L89.9556,136.7672 C92.6806,136.7672 94.8876,138.9762 94.8876,141.6992 C94.8876,144.4222 92.6806,146.6312 89.9556,146.6312" id="Fill-9" sketch:type="MSShapeGroup"></path>
                <path d="M109.91,147.57 C109.63,153.15 107.11,158.44 103,162.1 C99.6,165.13 95.47,166.6 91.34,166.35 C90.55,166.3 89.57,166.2 88.49,166.08 C82.16,165.42 76.62,165.02 72.78,166.8 C70.74,167.75 68.47,170.1 66.46,172.63 C64.44,170.1 62.17,167.75 60.13,166.8 C56.29,165.01 50.74,165.42 44.42,166.08 C43.34,166.2 42.36,166.3 41.57,166.35 C37.45,166.63 33.29,165.12 29.89,162.09 C25.78,158.43 23.27,153.14 23,147.58 C22.99,147.28 22.97,146.96 22.96,146.63 C22.83,143.99 22.67,140.6 22.5,136.77 C21.85,122.61 20.94,102.54 20.52,93.2 L112.4,93.2 L111.59,110.92 L111.14,120.78 L109.91,147.57 Z M10.56,70.02 C10.56,69.73 10.57,69.44 10.58,69.15 C10.59,68.8 10.61,68.46 10.64,68.11 C10.67,67.62 10.72,67.14 10.79,66.66 C10.81,66.52 10.83,66.39 10.85,66.26 C10.88,66.04 10.92,65.81 10.96,65.59 C11.1,64.84 11.27,64.09 11.48,63.36 C11.54,63.12 11.61,62.89 11.69,62.66 C11.76,62.42 11.84,62.19 11.92,61.96 C12,61.73 12.08,61.5 12.17,61.27 C12.26,61.05 12.34,60.82 12.44,60.6 C12.53,60.38 12.63,60.15 12.74,59.93 C12.83,59.71 12.94,59.49 13.05,59.27 C13.15,59.05 13.27,58.83 13.38,58.61 C13.6,58.2 13.83,57.78 14.09,57.38 C14.12,57.31 14.17,57.24 14.21,57.17 C14.43,56.82 14.66,56.47 14.9,56.13 C15.17,55.73 15.46,55.35 15.77,54.97 C15.77,54.96 15.77,54.95 15.78,54.95 C16.38,54.19 17.03,53.46 17.73,52.77 C18.08,52.43 18.43,52.1 18.8,51.78 C18.8,51.78 18.81,51.76 18.82,51.76 C19.18,51.45 19.54,51.14 19.92,50.86 C19.96,50.81 20.01,50.78 20.06,50.75 C20.41,50.47 20.78,50.21 21.16,49.95 C22.1,49.31 23.1,48.73 24.14,48.21 C26.37,47.11 28.74,46.38 31.2,46.03 C32.39,45.85 33.59,45.76 34.82,45.76 L98.09,45.76 C99.32,45.76 100.53,45.85 101.72,46.03 C104.18,46.38 106.54,47.11 108.77,48.21 C108.87,48.26 108.96,48.3 109.07,48.34 C110.01,48.82 110.91,49.36 111.76,49.94 C111.84,49.99 111.92,50.05 111.99,50.1 C112.3,50.31 112.59,50.53 112.88,50.75 C112.93,50.8 112.99,50.84 113.04,50.88 C113.41,51.16 113.77,51.46 114.11,51.77 C114.39,52.01 114.67,52.27 114.94,52.54 C115.03,52.61 115.12,52.7 115.2,52.79 C115.28,52.86 115.36,52.94 115.42,53.02 C115.66,53.25 115.88,53.49 116.1,53.73 C116.5,54.17 116.88,54.62 117.24,55.09 C117.46,55.37 117.67,55.65 117.87,55.94 C117.88,55.94 117.88,55.95 117.89,55.96 C117.98,56.09 118.08,56.23 118.17,56.37 C118.34,56.61 118.49,56.85 118.65,57.1 C118.76,57.27 118.86,57.44 118.96,57.61 C119.12,57.88 119.27,58.15 119.42,58.42 C119.61,58.77 119.79,59.12 119.96,59.48 C120.08,59.73 120.2,59.98 120.31,60.23 C120.75,61.25 121.13,62.29 121.44,63.37 C121.51,63.63 121.58,63.89 121.64,64.15 C121.75,64.61 121.86,65.08 121.94,65.55 C121.99,65.79 122.03,66.03 122.06,66.27 C122.1,66.48 122.12,66.68 122.15,66.89 C122.18,67.1 122.2,67.3 122.22,67.51 C122.24,67.72 122.26,67.93 122.28,68.14 C122.29,68.26 122.3,68.38 122.3,68.5 C122.32,68.75 122.33,69 122.34,69.26 C122.35,69.51 122.35,69.77 122.35,70.02 L122.35,83.34 L10.56,83.34 L10.56,70.02 Z M113.17,39.37 C113.05,39.31 112.92,39.25 112.79,39.2 C108.21,37.01 103.26,35.89 98.09,35.89 L75.4,35.89 C78.48,28.92 82.51,23 87.81,17.8 C92.71,12.99 93.13,7.09 88.92,3.24 C84.43,-0.87 77.83,-0.52 74.07,5.13 C70.15,11.04 66.73,17.52 64.41,24.2 C63.13,27.91 62.43,31.82 61.8,35.89 L34.82,35.89 C29.6,35.89 24.4,37.09 19.79,39.36 C8.01,45.17 0.69,56.92 0.69,70.02 L0.69,88.27 C0.69,91 2.9,93.2 5.63,93.2 L10.65,93.2 C11.1,103.3 12.18,127.27 12.85,141.54 L12.85,141.56 C12.86,141.8 12.87,142.03 12.88,142.26 L12.88,142.3 C12.98,144.49 13.07,146.44 13.15,148.04 C13.54,156.24 17.25,164.04 23.33,169.45 C28.73,174.26 35.44,176.66 42.24,176.19 C43.13,176.13 44.23,176.02 45.44,175.89 C48.09,175.61 54.29,174.97 55.84,175.68 C56.93,176.37 60.01,180.24 62.31,183.81 C63.21,185.21 64.78,186.07 66.46,186.07 C68.13,186.07 69.7,185.21 70.6,183.8 C72.9,180.24 75.98,176.37 76.93,175.75 C78.62,174.97 84.82,175.62 87.47,175.89 C88.68,176.02 89.78,176.13 90.67,176.19 C97.45,176.65 104.15,174.27 109.55,169.47 C115.63,164.07 119.35,156.26 119.76,148.03 L121.18,117.12 L121.27,115.02 L122.27,93.2 L127.29,93.2 C130.01,93.2 132.22,91 132.22,88.27 L132.22,70.02 C132.22,56.95 124.92,45.2 113.17,39.37 L113.17,39.37 Z" id="Fill-11" sketch:type="MSShapeGroup"></path>
                <path d="M93.19,68.52 L89.71,72.01 L86.21,68.51 C84.29,66.59 84.29,63.46 86.21,61.54 L89.7,58.06 L93.19,61.55 C95.11,63.47 95.11,66.6 93.19,68.52" id="Fill-13" sketch:type="MSShapeGroup"></path>
                <path d="M48.17,65.02 C48.17,66.33 47.66,67.59 46.73,68.51 L43.23,72.01 L39.74,68.52 C37.82,66.6 37.82,63.47 39.74,61.55 L43.24,58.05 L46.73,61.53 C47.65,62.46 48.17,63.71 48.17,65.02" id="Fill-15" sketch:type="MSShapeGroup"></path>
                <path d="M181.926,75.876 C181.926,106.159 239.653,81.858 239.653,136.446 C239.653,160.376 226.617,176.637 196.976,176.637 C182.235,176.637 175.874,174.956 167.339,171.031 C158.801,167.102 156.01,158.88 156.01,151.026 C156.01,146.726 156.786,145.044 158.646,145.044 C159.735,145.044 161.286,145.792 163.302,146.726 C172.925,151.402 181.305,154.951 193.564,154.951 C205.357,154.951 217.461,152.146 217.461,138.876 C217.461,103.73 159.735,128.031 159.735,78.305 C159.735,49.514 177.271,38.297 200.238,38.297 C214.67,38.297 224.911,41.102 230.651,46.337 C236.549,51.947 236.862,58.301 236.862,63.35 C236.862,66.713 235.464,68.584 231.585,66.713 C222.893,62.602 216.531,59.983 203.029,59.983 C189.218,59.983 181.926,65.779 181.926,75.876" id="Fill-17" sketch:type="MSShapeGroup"></path>
                <path d="M300.3204,159.444 C300.3204,162.634 299.9924,165.659 298.7754,168.092 C296.1124,173.912 289.1414,177.298 276.7124,177.298 C257.1814,177.298 253.7614,162.074 253.7614,148.33 L253.7614,108.512 C247.1194,107.229 244.1604,99.93 244.1604,92.992 C244.1604,88.882 245.5744,88.882 250.5394,88.882 L254.1564,88.882 C255.8654,71.159 262.6064,63.465 270.5304,63.465 C274.5424,63.465 274.5424,65.339 274.5424,71.751 L274.5424,88.882 L291.7724,88.882 C296.7374,88.882 298.1504,88.882 298.1504,93.025 C298.1504,101.673 292.1004,109.959 278.2904,109.959 L274.5424,109.959 L274.5424,140.044 C274.5424,154.348 279.8354,155.663 285.0974,155.663 C288.8454,155.663 292.3964,154.906 296.2764,153.789 C299.2354,153.032 300.3204,153.789 300.3204,159.444" id="Fill-19" sketch:type="MSShapeGroup"></path>
                <path d="M343.2892,141.4208 C332.5812,141.4208 326.6832,142.5408 326.6832,148.8988 C326.6832,154.5048 331.3382,157.3108 340.4942,157.3108 C348.8752,157.3108 353.8422,155.0668 358.1852,151.5138 L358.1852,142.5408 C353.2212,141.7928 348.2532,141.4208 343.2892,141.4208 M317.3732,88.7008 L339.5642,88.7008 C368.2712,88.7008 379.1372,102.5358 379.1372,125.1558 L379.1372,152.0758 C379.2912,159.9298 380.5312,161.0488 384.4142,161.0488 C387.0502,161.0488 387.6722,161.0488 387.6722,163.6648 C387.6722,170.9568 382.8622,176.3808 373.5482,176.3808 C366.7202,176.3808 362.0642,173.5758 359.7372,167.4068 C355.2362,171.7038 347.9442,176.3808 334.2882,176.3808 C315.0452,176.3808 305.8892,166.2838 305.8892,148.7088 C305.8892,131.1378 315.2002,123.0988 338.3212,123.0988 C345.6172,123.0988 351.6692,124.0358 358.0302,124.5938 C357.2552,111.3238 349.4962,109.6378 339.8732,109.6378 L327.6142,109.6378 C315.9762,109.6378 311.0082,101.0408 311.0082,92.8148 C311.0082,88.7008 312.2512,88.7008 317.3732,88.7008" id="Fill-21" sketch:type="MSShapeGroup"></path>
                <path d="M423.6566,136.5584 L423.6566,165.9114 C423.6566,173.7614 422.2596,175.2574 415.5886,175.2574 L410.7756,175.2574 C403.9476,175.2574 402.7086,173.7614 402.7086,165.9114 L402.7086,108.3324 C396.0346,107.0224 393.0856,99.7314 393.0856,92.8144 C393.0856,88.7004 394.4826,88.7004 399.4466,88.7004 L407.2086,88.7004 C415.8976,88.8894 420.8616,92.2534 422.7266,99.7314 C426.9146,89.0764 433.2796,85.5234 440.7256,85.5234 C450.0396,85.5234 452.0546,92.0674 452.0546,102.7224 C452.0546,106.2754 451.4336,107.7704 447.7116,107.0224 C444.7626,106.4614 443.6746,106.0884 441.0386,106.0884 C429.2426,106.0884 423.8106,117.4914 423.6566,136.5584" id="Fill-23" sketch:type="MSShapeGroup"></path>
                <path d="M481.5308,71.6909 L481.5308,88.6999 L498.7578,88.6999 C503.7218,88.6999 505.1198,88.6999 505.1198,92.8149 C505.1198,101.4129 499.0668,109.6379 485.2558,109.6379 L481.5308,109.6379 L481.5308,139.5499 C481.5308,153.7579 486.8078,155.0669 492.0838,155.0669 C495.8088,155.0669 499.3798,154.3189 503.2588,153.1959 C506.2038,152.4519 507.2928,153.1959 507.2928,158.8059 C507.2928,161.9829 506.9798,164.9739 505.7408,167.4069 C503.1008,173.1999 496.1178,176.5669 483.7038,176.5669 C464.1488,176.5669 460.7368,161.4249 460.7368,147.7749 L460.7368,97.8629 C460.7368,73.7449 468.3408,63.4649 477.4968,63.4649 C481.5308,63.4649 481.5308,65.3329 481.5308,71.6909" id="Fill-25" sketch:type="MSShapeGroup"></path>
                <path d="M536.9194,123.0983 L573.6974,123.0983 C572.7674,115.2483 568.1124,107.5843 555.8524,107.5843 C545.1454,107.5843 539.0924,113.5663 536.9194,123.0983 L536.9194,123.0983 Z M536.7654,141.9823 C539.2474,151.7003 547.1634,155.2533 561.5964,155.2533 C573.0794,155.2533 580.9934,153.5713 588.7514,150.2043 C592.7854,148.3373 593.7194,149.2703 593.7194,153.3853 C593.7194,155.6283 593.7194,168.1513 583.1664,173.3893 C576.9594,176.5663 570.1304,177.3143 559.2654,177.3143 C532.7314,177.3143 513.9524,163.8543 513.9524,134.3153 C513.9524,103.6563 528.6934,87.3943 554.6094,87.3943 C582.2354,87.3943 594.1824,106.2753 594.1824,127.7743 C594.1824,135.0633 592.9434,141.9823 583.0114,141.9823 L536.7654,141.9823 Z" id="Fill-27" sketch:type="MSShapeGroup"></path>
                <path d="M684.9489,108.1427 L684.9489,151.1417 C685.1029,159.3677 686.5009,160.6737 690.2259,160.6737 C692.8619,160.6737 693.4839,160.6737 693.4839,163.2927 C693.4839,170.5847 688.8279,176.0047 679.3599,176.0047 C672.2229,176.0047 667.2589,172.6377 665.2399,165.5357 C660.2759,171.7047 652.3589,176.1907 641.3419,176.1907 C620.2359,176.1907 611.3919,162.7307 611.3919,138.4297 L611.3919,108.5187 C604.4059,107.3947 601.3029,99.9167 601.3029,92.8147 C601.3029,88.7007 602.6999,88.7007 607.6679,88.7007 L615.4259,88.7007 C627.5309,88.7007 632.3409,94.4967 632.3409,108.1427 L632.3409,138.0537 C632.3409,146.4697 635.9109,154.1327 647.3949,154.1327 C658.7199,154.1327 663.6879,147.5887 664.1549,137.1197 L664.1549,108.5187 C657.1689,107.3947 654.2229,99.9167 654.2229,92.8147 C654.2229,88.7007 655.6169,88.7007 660.4299,88.7007 L668.1889,88.7007 C680.1389,88.7007 684.9489,94.4967 684.9489,108.1427" id="Fill-29" sketch:type="MSShapeGroup"></path>
                <path d="M731.0201,136.5584 L731.0201,165.9114 C731.0201,173.7614 729.6231,175.2574 722.9521,175.2574 L718.1391,175.2574 C711.3111,175.2574 710.0721,173.7614 710.0721,165.9114 L710.0721,108.3324 C703.3981,107.0224 700.4491,99.7314 700.4491,92.8144 C700.4491,88.7004 701.8461,88.7004 706.8101,88.7004 L714.5721,88.7004 C723.2611,88.8894 728.2261,92.2534 730.0901,99.7314 C734.2781,89.0764 740.6431,85.5234 748.0891,85.5234 C757.4031,85.5234 759.4181,92.0674 759.4181,102.7224 C759.4181,106.2754 758.7971,107.7704 755.0751,107.0224 C752.1261,106.4614 751.0381,106.0884 748.4021,106.0884 C736.6061,106.0884 731.1741,117.4914 731.0201,136.5584" id="Fill-31" sketch:type="MSShapeGroup"></path>
            </g>
        </g>
    </g>
</svg>