<?xml version="1.0" encoding="UTF-8" standalone="no"?>
<svg width="266px" height="59px" viewBox="0 0 266 59" version="1.1" xmlns="http://www.w3.org/2000/svg" xmlns:xlink="http://www.w3.org/1999/xlink" xmlns:sketch="http://www.bohemiancoding.com/sketch/ns">
    <!-- Generator: Sketch 3.5.1 (25234) - http://www.bohemiancoding.com/sketch -->
    <title>Header Logo</title>
    <desc>Created with Sketch.</desc>
    <defs></defs>
    <g id="Page-1" stroke="none" stroke-width="1" fill="none" fill-rule="evenodd" sketch:type="MSPage">
        <g id="Header-Logo" sketch:type="MSArtboardGroup" fill="#4AC7AE">
            <g id="header-logo" sketch:type="MSLayerGroup">
                <path d="M39.3,8.1 C39.3,8.1 39.2,8.1 39.3,8.1 C39.2,8 39.1,8 39.1,8 C37.5,7.2 35.7,6.8 34,6.8 L26.3,6.8 C26.6,5.3 27.1,4.1 27.7,2.6 C28.2,1.4 27.7,0.9 26.8,0.9 C25.4,0.9 23.7,1 22.1,2.9 C21.4,3.8 20.8,5.1 20.4,6.8 L12.3,6.8 C10.5,6.8 8.8,7.2 7.2,8 C7.2,8 7.1,8 7.1,8.1 C7.1,8.1 7.1,8.1 7,8.1 C2.9,10.1 0.4,14.2 0.4,18.8 L0.4,25 C0.4,26.1 1.3,27 2.4,27 L3.6,27 L4.4,45.5 C4.5,48.5 5.9,51.3 8.1,53.2 C10.1,54.9 12.5,55.8 15,55.6 C15.3,55.6 15.7,55.5 16.1,55.5 C16.9,55.4 18.7,55.2 19.3,55.4 C19.7,55.7 20.6,56.9 21.3,58 C21.7,58.6 22.4,59 23.2,59 C24,59 24.7,58.6 25.1,58 C25.8,57 26.7,55.8 27.1,55.4 C27.7,55.2 29.6,55.4 30.3,55.5 C30.7,55.5 31.1,55.6 31.4,55.6 C33.9,55.8 36.3,54.9 38.3,53.2 C40.5,51.3 41.8,48.4 42,45.5 L42.8,27 L44,27 C45.1,27 46,26.1 46,25 L46,18.8 C45.9,14.2 43.4,10.1 39.3,8.1 L39.3,8.1 Z M33.9,10.8 L34.5,10.8 L31,14.3 L27.5,10.8 L33.9,10.8 L33.9,10.8 Z M31.1,19.9 L34.3,23.1 L27.9,23.1 L31.1,19.9 L31.1,19.9 Z M23.1,11.9 L28.3,17.1 L23.1,22.3 L18,17.1 L23.1,11.9 L23.1,11.9 Z M18.4,23.1 L12,23.1 L15.2,19.9 L18.4,23.1 L18.4,23.1 Z M12.3,10.8 L18.7,10.8 L15.2,14.3 L11.7,10.8 C11.9,10.8 12.1,10.8 12.3,10.8 L12.3,10.8 Z M4.3,19.3 L4.3,18.8 C4.3,16.2 5.5,13.8 7.6,12.3 L12.4,17.1 L7.2,22.3 L4.3,19.3 L4.3,19.3 Z M38,32.5 L15.2,32.5 C14.1,32.5 13.2,33.4 13.2,34.5 C13.2,35.6 14.1,36.5 15.2,36.5 L37.9,36.5 L37.5,45.3 C37.4,47 36.6,48.7 35.3,49.9 C34.3,50.8 33,51.3 31.7,51.2 C31.4,51.2 31.1,51.2 30.7,51.1 C28.5,50.9 26.5,50.7 25,51.4 C24.4,51.7 23.7,52.3 23.1,53 C22.5,52.3 21.8,51.7 21.2,51.4 C19.8,50.7 17.8,50.9 15.5,51.1 C15.1,51.1 14.8,51.2 14.5,51.2 C13.3,51.3 12,50.8 10.9,49.9 C9.6,48.8 8.8,47.1 8.7,45.3 L8.7,45.3 L31,45.3 C32.1,45.3 33,44.4 33,43.3 C33,42.2 32.1,41.3 31,41.3 L8.7,41.3 L8,27 L38.2,27 L38,32.5 L38,32.5 Z M42,19.3 L39,22.3 L33.8,17.1 L38.6,12.3 C40.7,13.8 41.9,16.2 41.9,18.8 L41.9,19.3 L42,19.3 Z" id="Shape" sketch:type="MSShapeGroup"></path>
                <g id="Group" transform="translate(53.000000, 7.000000)" sketch:type="MSShapeGroup">
                    <path d="M9.5,13.1 C9.5,23.7 29.8,15.2 29.8,34.4 C29.8,42.8 25.2,48.5 14.8,48.5 C9.6,48.5 7.4,47.9 4.4,46.5 C1.4,45.1 0.4,42.2 0.4,39.5 C0.4,38 0.7,37.4 1.3,37.4 C1.7,37.4 2.2,37.7 2.9,38 C6.3,39.6 9.2,40.9 13.5,40.9 C17.6,40.9 21.9,39.9 21.9,35.3 C21.9,23 1.6,31.5 1.6,14 C1.6,3.9 7.8,0 15.8,0 C20.9,0 24.5,1 26.5,2.8 C28.6,4.8 28.7,7 28.7,8.8 C28.7,10 28.2,10.6 26.8,10 C23.7,8.6 21.5,7.6 16.8,7.6 C12.1,7.5 9.5,9.5 9.5,13.1 L9.5,13.1 Z" id="Shape"></path>
                    <path d="M51.1,42.4 C51.1,43.5 51,44.6 50.6,45.4 C49.7,47.4 47.2,48.6 42.9,48.6 C36,48.6 34.8,43.2 34.8,38.4 L34.8,24.4 C32.5,23.9 31.4,21.4 31.4,18.9 C31.4,17.5 31.9,17.5 33.6,17.5 L34.9,17.5 C35.5,11.3 37.9,8.6 40.6,8.6 C42,8.6 42,9.3 42,11.5 L42,17.5 L48,17.5 C49.7,17.5 50.2,17.5 50.2,19 C50.2,22 48.1,24.9 43.2,24.9 L41.9,24.9 L41.9,35.5 C41.9,40.5 43.7,41 45.6,41 C46.9,41 48.2,40.7 49.5,40.3 C50.7,40.2 51.1,40.4 51.1,42.4 L51.1,42.4 Z" id="Shape"></path>
                    <path d="M57.1,17.6 L64.9,17.6 C75,17.6 78.8,22.5 78.8,30.4 L78.8,39.9 C78.9,42.7 79.3,43.1 80.7,43.1 C81.6,43.1 81.8,43.1 81.8,44 C81.8,46.6 80.1,48.5 76.8,48.5 C74.4,48.5 72.8,47.5 72,45.3 C70.4,46.8 67.9,48.5 63.1,48.5 C56.3,48.5 53.1,45 53.1,38.8 C53.1,32.6 56.4,29.8 64.5,29.8 C67.1,29.8 69.2,30.1 71.4,30.3 C71.1,25.6 68.4,25 65,25 L60.7,25 C56.6,25 54.9,22 54.9,19.1 C54.9,17.6 55.3,17.6 57.1,17.6 L57.1,17.6 Z M66.2,36.1 C62.4,36.1 60.4,36.5 60.4,38.7 C60.4,40.7 62,41.7 65.2,41.7 C68.1,41.7 69.9,40.9 71.4,39.7 L71.4,36.5 C69.7,36.2 67.9,36.1 66.2,36.1 L66.2,36.1 Z" id="Shape"></path>
                    <path d="M94.4,34.4 L94.4,44.7 C94.4,47.5 93.9,48 91.6,48 L89.9,48 C87.5,48 87.1,47.5 87.1,44.7 L87.1,24.5 C84.8,24 83.7,21.5 83.7,19.1 C83.7,17.7 84.2,17.7 85.9,17.7 L88.6,17.7 C91.7,17.8 93.4,18.9 94,21.6 C95.5,17.9 97.7,16.6 100.3,16.6 C103.6,16.6 104.3,18.9 104.3,22.6 C104.3,23.8 104.1,24.4 102.8,24.1 C101.8,23.9 101.4,23.8 100.5,23.8 C96.4,23.7 94.5,27.7 94.4,34.4 L94.4,34.4 Z" id="Shape"></path>
                    <path d="M114.7,11.6 L114.7,17.6 L120.7,17.6 C122.4,17.6 122.9,17.6 122.9,19 C122.9,22 120.8,24.9 115.9,24.9 L114.6,24.9 L114.6,35.4 C114.6,40.4 116.5,40.8 118.3,40.8 C119.6,40.8 120.9,40.5 122.2,40.1 C123.2,39.8 123.6,40.1 123.6,42.1 C123.6,43.2 123.5,44.3 123.1,45.1 C122.2,47.1 119.7,48.3 115.4,48.3 C108.5,48.3 107.3,43 107.3,38.2 L107.3,20.8 C107.3,12.3 110,8.7 113.2,8.7 C114.7,8.7 114.7,9.4 114.7,11.6 L114.7,11.6 Z" id="Shape"></path>
                    <path d="M134.1,36.3 C135,39.7 137.8,41 142.8,41 C146.8,41 149.6,40.4 152.3,39.2 C153.7,38.5 154,38.9 154,40.3 C154,41.1 154,45.5 150.3,47.3 C148.1,48.4 145.7,48.7 141.9,48.7 C132.6,48.7 126,44 126,33.6 C126,22.8 131.2,17.1 140.3,17.1 C150,17.1 154.2,23.7 154.2,31.3 C154.2,33.9 153.8,36.3 150.3,36.3 L134.1,36.3 L134.1,36.3 Z M134.2,29.7 L147.1,29.7 C146.8,26.9 145.1,24.3 140.8,24.3 C137.1,24.2 135,26.3 134.2,29.7 L134.2,29.7 Z" id="Shape"></path>
                    <path d="M186.2,24.4 L186.2,39.5 C186.3,42.4 186.7,42.8 188.1,42.8 C189,42.8 189.2,42.8 189.2,43.7 C189.2,46.3 187.6,48.2 184.2,48.2 C181.7,48.2 180,47 179.2,44.5 C177.5,46.7 174.7,48.2 170.8,48.2 C163.4,48.2 160.3,43.5 160.3,34.9 L160.3,24.5 C157.8,24.1 156.8,21.5 156.8,19 C156.8,17.6 157.3,17.6 159,17.6 L161.7,17.6 C166,17.6 167.6,19.6 167.6,24.4 L167.6,34.9 C167.6,37.9 168.9,40.5 172.9,40.5 C176.9,40.5 178.6,38.2 178.8,34.5 L178.8,24.5 C176.3,24.1 175.3,21.5 175.3,19 C175.3,17.6 175.8,17.6 177.5,17.6 L180.2,17.6 C184.5,17.6 186.2,19.6 186.2,24.4 L186.2,24.4 Z" id="Shape"></path>
                    <path d="M202.3,34.4 L202.3,44.7 C202.3,47.5 201.8,48 199.5,48 L197.8,48 C195.4,48 195,47.5 195,44.7 L195,24.5 C192.7,24 191.6,21.5 191.6,19.1 C191.6,17.7 192.1,17.7 193.8,17.7 L196.5,17.7 C199.6,17.8 201.3,18.9 201.9,21.6 C203.4,17.9 205.6,16.6 208.2,16.6 C211.5,16.6 212.2,18.9 212.2,22.6 C212.2,23.8 212,24.4 210.7,24.1 C209.7,23.9 209.3,23.8 208.4,23.8 C204.3,23.7 202.4,27.7 202.3,34.4 L202.3,34.4 Z" id="Shape"></path>
                </g>
            </g>
        </g>
    </g>
</svg>